<svg xmlns="http://www.w3.org/2000/svg" fill="none" viewBox="0 0 512 512">
  <g clip-path="url(#a)">
    <path fill="#2AA29F" fill-rule="evenodd" d="M256 512c141.013 0 256-114.987 256-256S397.013 0 256 0 0 114.987 0 256s114.987 256 256 256Z" clip-rule="evenodd"/>
    <path fill="#fff" fill-rule="evenodd" d="M257.795 156.544c11.408-9.91 71.537-10.589 84.479-4.355 17.627 8.471 35.334 15.804 35.072 36.324-.242 20.261-1.979 41.8-2.06 50.771-.1 8.212 8.117 12.828 16.052 34.287 2.867 7.593 20.737 14.526 16.416 21.979-2.585 4.256-6.906 11.009-17.97 17.583-3.352 1.978-18.314 12.488-5.452 34.027 4.503 7.693 2.685 4.696-9.146 19.921-8.541 11.029-1.111 34.367-6.906 36.505-.081.079-20.049-5.815-40.261-.78-31.437 7.953-68.488 28.133-68.851 27.973-.606-.2-23.22-31.969-42.906-53.788-14.174-15.625-27.985-20.94-25.643-29.831 8.36-31.969-47.61-83.859-27.055-119.584 12.094-20.94 45.773-2.298 60.976 9.331 22.21 17.083 15.386-64.898 33.255-80.363Z" clip-rule="evenodd"/>
    <path fill="#363634" fill-rule="evenodd" d="M359.034 358.629c-.425 2.398-3.271 13.067-4.241 14.606-2.059-.679-17.869-10.25-20.292-11.968 2.08-2.898 38.182-18.463 44.057-18.642 1.292 1.638 5.452 8.292 5.351 10.589l-24.875 5.395v.02ZM222.986 256.208l9.167-.26c.263 28.133-2.16 37.624-11.509 66.676-3.008 7.353 7.007 30.271 9.874 36.684 1.615 3.677 2.14 5.036 3.089 5.795 4.321 3.596 68.246 25.835 83.712 34.367-27.218 9.231-44.319 19.401-58.918 27.533-15.708-22.578-38.605-54.707-62.45-73.429 1.13-5.555 6.138-26.754 5.714-31.03-.343-3.676-23.079-32.389-28.591-53.588-5.189-19.761-4.846-34.627 14.598-36.345 19.263-1.599 27.803 7.533 35.335 23.597h-.021Zm135.179-21.1c2.262-.179 6.219-.959 8.218-1.118.262 2.737-.868 28.472-1.635 31.109-.525 1.639-3.372 4.536-5.19 5.735-2.503 1.538-2.342-30.87-1.393-35.726Zm-93.969 13.927c21.342-4.016 59.867-9.591 80.239-12.388-1.978 21.539 1.737 51.95 2.767 53.748.686 1.299 8.641 1.559 10.539.36.788-.52 17.546-17.264 17.627-17.443.525-1.799.081-4.796.424-13.348 4.402 7.533 10.096 17.623 15.204 25.316 5.35 8.112 9.853 13.507 9.853 13.507-.343 1.538-9.328 9.051-11.065 9.391-6.117 1.199-29.539 2.917-39.736 5.135-10.519 2.298-35.071 15.305-45.248 20.52-5.714-3.597-29.377-36.685-34.567-43.957-3.695-5.116-2.665-4.097-3.432-12.209-.969-9.391-2.181-19.061-2.625-28.632h.02Zm55.122-68.813c2.827 4.875 3.695 24.016 4.644 29.071 8.641 1.279 23.583 4.436 31.094 5.036 3.029-9.991 1.575-31.11.868-42.16 3.453 1.139 14.699 8.832 15.81 12.069 1.898 5.135 1.474 28.972-.081 34.107-5.108.419-10.378 0-15.466.419-13.044 1.039-28.51 2.917-41.392 5.215-7.673 1.459-45.672 9.931-52.073 9.931l-1.554-8.392c0-.939 8.823-14.946 10.539-18.283 2.161-4.096 4.321-8.471 6.562-12.827.788-1.539 5.27-12.568 6.139-13.327 17.101 17.523 21.261 26.154 22.371 27.014 1.131.839 10.358 1.198 12.175 1.099 1.898-3.997 1.232-21.979.364-28.972Zm-154.461-45.217c-3.271-7.093-1.636-42.219-1.898-42.559-5.957-2.917-30.226 26.495-32.044 32.309-3.795 12.648.525 18.023 3.796 29.132-20.998 11.709-38.363 34.966-34.99 61.54 4.159-3.836 13.83-12.208 20.392-14.266-6.461 28.133-7.874 69.153 28.591 97.546 5.875 4.516 9.409 43.238 10.378 56.066 5.855-.68 14.941-1.539 21.059-.26 23.24 4.955 63.4 63.858 76.807 82.82 14.679-7.673 60.714-29.731 76.524-29.052 2.322.08 8.197 4.016 13.205 4.875 6.481 1.019 19.524-3.157 25.662-4.795 15.81-4.096 12.519-1.279 11.065-17.004-.949-10.19 0-20.44.343-30.43.162-5.475 6.381-4.536 5.533-9.231-.788-3.857-3.635-7.433-5.189-10.51 2.685-.939 10.095-.859 10.196-3.077.424-8.472-.182-16.844-.182-25.316 3.029-2.397 19.444-13.507 20.736-19.381-12.013-11.649-41.633-52.749-37.999-64.038 4.644-14.446 3.533-25.475 3.533-35.905 1.474 1.278 27.904-7.853 31.882-9.231-4.664-25.036-23.583-42.399-38.282-49.493-.767-9.151 3.977-27.513 6.562-32.988-57.948-31.709-127.829-8.99-148.485 3.997.969-5.275 6.926-16.045 8.904-20.42-39.816.699-72.889 37.883-76.099 49.671Z" clip-rule="evenodd"/>
  </g>
  <defs>
    <clipPath id="a">
      <rect width="512" height="512" fill="#fff"/>
    </clipPath>
  </defs>
</svg>
