<?xml version="1.0" standalone="no"?>
<!DOCTYPE svg PUBLIC "-//W3C//DTD SVG 20010904//EN"
  "http://www.w3.org/TR/2001/REC-SVG-20010904/DTD/svg10.dtd">
<svg version="1.0" xmlns="http://www.w3.org/2000/svg"
     width="789.000000pt" height="789.000000pt" viewBox="0 0 789.000000 789.000000"
     preserveAspectRatio="xMidYMid meet">
  <metadata>
    Created by potrace 1.11, written by Peter Selinger 2001-2013
  </metadata>
  <g transform="translate(0.000000,789.000000) scale(0.100000,-0.100000)"
     fill="#000000" stroke="none">
    <path d="M3709 7875 c-2 -1 -42 -6 -89 -10 -109 -8 -160 -14 -240 -26 -36 -6
-79 -13 -97 -15 -18 -2 -65 -11 -105 -20 -40 -8 -84 -18 -98 -20 -14 -3 -77
-19 -140 -35 -63 -17 -122 -32 -130 -34 -105 -26 -417 -149 -580 -229 -172
-85 -239 -121 -325 -175 -22 -14 -52 -32 -67 -41 -33 -18 -255 -172 -289 -200
-13 -11 -29 -23 -34 -27 -102 -78 -251 -211 -372 -332 -45 -45 -83 -85 -83
-86 0 -2 -19 -23 -42 -47 -24 -24 -61 -66 -83 -93 -22 -28 -42 -52 -45 -55
-21 -18 -140 -180 -140 -189 0 -6 -4 -11 -8 -11 -9 0 -122 -166 -122 -179 0
-5 -4 -11 -9 -13 -12 -4 -141 -229 -141 -245 0 -7 -4 -13 -8 -13 -8 0 -44 -73
-110 -220 -9 -19 -20 -38 -25 -41 -5 -3 -8 -9 -7 -13 1 -4 -21 -65 -49 -137
-28 -71 -51 -134 -51 -139 0 -6 -4 -18 -10 -28 -8 -14 -65 -197 -75 -242 -2
-8 -12 -51 -23 -95 -11 -44 -23 -98 -28 -120 -4 -22 -8 -44 -10 -50 -9 -37
-16 -82 -29 -170 -3 -19 -7 -50 -10 -67 -6 -44 -13 -106 -22 -203 -10 -99 -10
-557 0 -645 4 -36 9 -92 13 -125 31 -310 137 -723 270 -1049 45 -109 172 -377
184 -386 3 -3 14 -21 23 -40 29 -58 161 -276 177 -290 3 -3 21 -27 40 -55 19
-27 38 -51 42 -53 4 -2 8 -8 8 -14 0 -6 14 -27 30 -47 17 -20 34 -40 38 -46
116 -158 393 -446 563 -585 23 -19 51 -43 61 -52 10 -10 18 -15 18 -11 0 3 8
-4 19 -15 10 -12 22 -22 25 -22 4 0 14 -7 22 -15 9 -8 46 -36 82 -62 37 -26
69 -51 70 -55 2 -5 10 -8 18 -8 8 0 14 -4 14 -10 0 -5 6 -10 13 -10 8 0 22 -9
32 -20 10 -11 21 -20 26 -20 4 0 50 -27 102 -60 53 -33 101 -60 106 -60 6 0
11 -5 11 -12 0 -6 3 -9 6 -5 3 3 23 -4 43 -17 32 -20 209 -107 286 -141 99
-44 126 -55 132 -55 5 0 19 -6 33 -13 14 -7 88 -34 165 -60 164 -54 268 -83
405 -113 14 -3 45 -10 70 -15 43 -10 64 -14 131 -23 17 -3 42 -7 57 -10 27 -6
54 -9 172 -23 141 -17 842 -9 945 11 11 2 45 7 75 11 44 6 234 42 310 60 15 3
130 34 205 55 170 47 560 199 577 224 4 6 8 7 8 3 0 -8 185 86 205 104 5 5 17
9 27 9 10 0 18 4 18 8 0 4 19 18 43 30 97 50 396 255 497 342 19 17 47 40 61
53 81 68 139 121 222 203 81 80 121 123 247 264 95 107 380 512 380 540 0 5 5
10 12 10 6 0 8 3 5 6 -4 4 1 19 11 33 9 14 22 35 29 46 15 25 157 308 158 315
1 7 56 142 66 162 25 49 142 423 162 518 3 14 8 36 11 50 22 93 54 275 62 355
4 33 8 62 9 65 18 32 27 620 11 780 -12 129 -41 344 -53 390 -10 39 -10 42
-17 85 -23 141 -116 445 -216 700 -51 131 -182 385 -305 591 -32 54 -182 267
-204 291 -12 12 -21 27 -21 32 0 6 -6 14 -13 18 -6 4 -24 24 -38 43 -114 151
-407 444 -578 578 -19 15 -58 46 -87 70 -29 23 -57 42 -62 42 -6 0 -12 4 -14
9 -4 12 -224 161 -237 161 -6 0 -11 5 -11 10 0 6 -5 10 -10 10 -6 0 -27 11
-48 25 -92 60 -359 194 -522 260 -93 39 -350 129 -399 141 -9 2 -68 17 -131
33 -63 17 -128 32 -145 35 -16 3 -41 8 -55 11 -43 9 -134 25 -175 31 -16 2
-39 6 -50 8 -11 2 -56 7 -100 11 -44 4 -91 9 -105 12 -28 6 -566 14 -571 8z"/>
  </g>
</svg>
