<svg xmlns="http://www.w3.org/2000/svg">
	<symbol
		id="edit-outline"
		viewBox="0 0 24 24"
		fill="inherit"
		stroke="none">
			<path d="M18.875 9.75c-.375 0-.625.25-.625.625v8.75c0 .375-.25.625-.625.625H3.875c-.375 0-.625-.25-.625-.625V5.375c0-.375.25-.625.625-.625h8.75c.375 0 .625-.25.625-.625S13 3.5 12.625 3.5h-8.75C2.875 3.5 2 4.375 2 5.375v13.75c0 1 .875 1.875 1.875 1.875h13.75c1 0 1.875-.875 1.875-1.875v-8.75c0-.375-.25-.625-.625-.625Z"/>
			<path fill-rule="evenodd" d="M1.75 5.375c0-1.138.987-2.125 2.125-2.125h8.75c.244 0 .467.083.63.245a.874.874 0 0 1 .245.63.874.874 0 0 1-.245.63.874.874 0 0 1-.63.245h-8.75c-.13 0-.22.042-.276.099a.377.377 0 0 0-.099.276v13.75c0 .13.042.22.099.276a.377.377 0 0 0 .276.099h13.75c.13 0 .22-.043.276-.099a.377.377 0 0 0 .099-.276v-8.75c0-.244.082-.467.245-.63a.874.874 0 0 1 .63-.245c.244 0 .467.083.63.245a.874.874 0 0 1 .245.63v8.75c0 1.138-.987 2.125-2.125 2.125H3.875c-1.138 0-2.125-.987-2.125-2.125V5.375ZM3.875 3.75c-.862 0-1.625.763-1.625 1.625v13.75c0 .862.763 1.625 1.625 1.625h13.75c.862 0 1.625-.763 1.625-1.625v-8.75c0-.13-.043-.22-.099-.276a.377.377 0 0 0-.276-.099c-.13 0-.22.043-.276.099a.377.377 0 0 0-.099.276v8.75a.874.874 0 0 1-.245.63.874.874 0 0 1-.63.245H3.875a.874.874 0 0 1-.63-.245.874.874 0 0 1-.245-.63V5.375c0-.244.083-.467.245-.63a.874.874 0 0 1 .63-.245h8.75c.13 0 .22-.042.276-.099A.377.377 0 0 0 13 4.125c0-.13-.043-.22-.099-.276a.377.377 0 0 0-.276-.099h-8.75Z" clip-rule="evenodd"/>
			<path d="m21.5 2.25-.75-.75c-.75-.75-1.875-.75-2.625 0L10.25 9.375c-.125.125-.25.25-.25.375l-.5 3c0 .25 0 .375.125.5s.375.25.5.25h.125l3-.5c.125 0 .25-.125.375-.125L21.5 5c.25-.375.5-.875.5-1.375s-.25-1-.5-1.375Zm-8.625 9.5-2 .375.375-2L17 4.375 18.625 6l-5.75 5.75ZM20.625 4 19.5 5.125 17.875 3.5 19 2.375c.25-.25.625-.25.875 0l.75.75c0 .125.125.375.125.5s-.125.25-.125.375Z"/>
  			<path fill-rule="evenodd" d="M17.948 1.323c.848-.847 2.131-.847 2.979 0l.767.768.014.02c.258.388.542.939.542 1.514 0 .575-.284 1.126-.542 1.514l-.014.02-7.965 7.966h-.1l-.01.004a.8.8 0 0 0-.07.032l-.003.002c-.03.014-.07.035-.114.052a.534.534 0 0 1-.157.034l-3.004.501h-.146a.873.873 0 0 1-.362-.104 1.256 1.256 0 0 1-.315-.22c-.2-.199-.199-.423-.198-.642V12.73l.5-3.005a.583.583 0 0 1 .128-.313c.058-.076.131-.15.19-.208l7.88-7.88Zm2.625.354c-.652-.653-1.619-.653-2.271 0l-7.875 7.875a1.668 1.668 0 0 0-.149.16.222.222 0 0 0-.028.046v.013l-.5 3c0 .12.002.181.01.227a.126.126 0 0 0 .042.075.764.764 0 0 0 .324.177h.103l3-.5h.016l.011-.004a.8.8 0 0 0 .07-.032l.003-.002c.03-.014.07-.035.114-.052a.632.632 0 0 1 .063-.02l7.8-7.799c.236-.359.444-.8.444-1.216 0-.417-.208-.857-.445-1.216l-.732-.732Zm-.875.875a.355.355 0 0 0-.521 0l-.948.948L19.5 4.771l.89-.89a.639.639 0 0 1 .02-.063c.017-.043.038-.085.052-.114l.002-.003a.793.793 0 0 0 .035-.079 2.484 2.484 0 0 0-.05-.168v-.003c-.015-.045-.032-.097-.046-.147a1.037 1.037 0 0 1-.015-.062l-.69-.69Zm-.875-.354a.854.854 0 0 1 1.229 0l.823.823v.104l.01.047c.01.035.023.075.04.124v.003c.016.045.033.097.047.147a.518.518 0 0 1-.007.36 1.217 1.217 0 0 1-.052.115l-.002.003a.793.793 0 0 0-.032.07l-.004.01v.1L19.5 5.479 17.521 3.5l1.302-1.302ZM17 4.021 18.979 6l-5.982 5.982-2.435.456.457-2.435L17 4.02Zm-5.518 6.226-.294 1.565 1.565-.293L18.27 6 17 4.729l-5.518 5.518Z" clip-rule="evenodd"/>
	</symbol>
	<symbol
		id="search-outline"
		viewBox="0 0 24 24"
		fill="none"
		stroke="inherit">
			<path stroke-linecap="round" stroke-linejoin="round" stroke-width="2.01827" d="M11 19a8 8 0 1 0 0-16 8 8 0 0 0 0 16ZM21 21l-4.35-4.35"/>
	</symbol>
	<symbol
		id="setting-outline"
		viewBox="0 0 24 24"
		fill="inherit"
		stroke="none">
			<path d="M12.997 1.25c.662 0 1.223.47 1.349 1.108l.019.13.166 1.659.147.048c.217.074.43.157.64.25l.31.144.134.069 1.291-1.056a1.375 1.375 0 0 1 1.62-.09l.12.088.104.094 1.41 1.41c.466.466.531 1.19.174 1.73l-.083.113-1.057 1.29.07.135c.101.205.193.415.276.628l.118.322.047.146 1.66.167a1.375 1.375 0 0 1 1.214 1.11l.018.127.006.131v1.994c0 .662-.47 1.223-1.108 1.349l-.13.019-1.66.166-.047.147c-.074.217-.157.43-.25.64l-.144.31-.07.134 1.057 1.291c.386.472.41 1.128.09 1.62l-.088.12-.094.104-1.41 1.41a1.375 1.375 0 0 1-1.73.174l-.113-.083-1.291-1.057-.134.07c-.205.101-.415.193-.628.276l-.322.118-.147.047-.166 1.66a1.375 1.375 0 0 1-1.11 1.214l-.127.018-.131.006h-1.994c-.662 0-1.223-.47-1.349-1.108l-.02-.13-.166-1.66-.146-.047a8.189 8.189 0 0 1-.64-.25l-.31-.144-.135-.07-1.29 1.057a1.375 1.375 0 0 1-1.62.09l-.12-.088-.103-.094-1.41-1.41a1.375 1.375 0 0 1-.175-1.73l.083-.113 1.056-1.291-.07-.134A8.198 8.198 0 0 1 4.314 15l-.118-.322-.048-.147-1.659-.166a1.375 1.375 0 0 1-1.214-1.11l-.018-.127-.006-.131v-1.994c0-.662.47-1.223 1.108-1.349l.13-.02 1.659-.166.048-.146a8.2 8.2 0 0 1 .25-.64l.144-.31.069-.135-1.056-1.29a1.375 1.375 0 0 1-.09-1.62l.088-.12.094-.103 1.41-1.41a1.375 1.375 0 0 1 1.73-.175l.113.083 1.29 1.056.135-.07c.205-.1.415-.192.628-.275l.322-.118.146-.048.167-1.659a1.375 1.375 0 0 1 1.11-1.214l.127-.018.131-.006h1.994Zm-.114 1.5h-1.767l-.258 2.575-.51.129a6.7 6.7 0 0 0-1.524.588l-.284.161-.452.27-2.004-1.639-1.25 1.25 1.64 2.004-.27.452c-.281.468-.503.968-.663 1.491l-.087.316-.129.511-2.575.258v1.767l2.575.259.129.51a6.7 6.7 0 0 0 .588 1.524l.161.284.27.452-1.639 2.003 1.25 1.25 2.004-1.639.452.27c.468.281.968.503 1.491.663l.316.087.511.129.258 2.575h1.767l.259-2.575.51-.129a6.696 6.696 0 0 0 1.524-.588l.284-.161.452-.27 2.003 1.638 1.25-1.25-1.639-2.002.27-.453c.281-.468.503-.968.663-1.491l.087-.316.129-.511 2.575-.259v-1.767l-2.575-.258-.129-.51a6.697 6.697 0 0 0-.588-1.524l-.161-.284-.27-.452 1.638-2.004-1.25-1.25-2.002 1.64-.453-.27a6.71 6.71 0 0 0-1.491-.663l-.316-.087-.511-.129-.259-2.575ZM12 7.25a4.75 4.75 0 1 1 0 9.5 4.75 4.75 0 0 1 0-9.5Zm0 1.5a3.25 3.25 0 1 0 0 6.5 3.25 3.25 0 0 0 0-6.5Z"/>
	</symbol>
	<symbol
		id="sign-out-outline"
		viewBox="0 0 24 24"
		fill="inherit"
		stroke="none">
			<path fill-rule="evenodd" d="M15.517 7.267c.44-.44 1.152-.44 1.591 0l3.938 3.937c.439.44.439 1.152 0 1.591l-3.938 3.938a1.125 1.125 0 1 1-1.59-1.591L18.658 12l-3.142-3.142a1.125 1.125 0 0 1 0-1.591Z" clip-rule="evenodd"/>
			<path fill-rule="evenodd" d="M8.8 12a.95.95 0 0 1 .95-.95h10.5a.95.95 0 1 1 0 1.9H9.75A.95.95 0 0 1 8.8 12Z" clip-rule="evenodd"/>
			<path fill-rule="evenodd" d="M4.7 4.7h5.05a.95.95 0 0 0 0-1.9H4.5a1.7 1.7 0 0 0-1.7 1.7v15a1.7 1.7 0 0 0 1.7 1.7h5.25a.95.95 0 0 0 0-1.9H4.7V4.7Z" clip-rule="evenodd"/>

	</symbol>
	<symbol
		id="user-solid"
		viewBox="0 0 24 24"
		fill="inherit"
		stroke="none">
			<path fill-rule="evenodd" d="M12 12c2.214 0 4.01-1.903 4.01-4.25S14.213 3.5 12 3.5c-2.214 0-4.01 1.903-4.01 4.25S9.787 12 12 12Zm-.589.944c-3.653 0-6.86 2.29-7.85 5.603-.292.98.49 1.953 1.57 1.953h13.737c1.08 0 1.863-.972 1.57-1.953-.989-3.313-4.196-5.603-7.85-5.603h-1.177Z" clip-rule="evenodd"/>
	</symbol>
	<symbol
		id="user-outline"
		viewBox="0 0 24 24"
		fill="inherit"
		stroke="none">
			<path fill-rule="evenodd" d="M11.5 3.85c-2.165 0-4.003 1.875-4.003 4.293s1.838 4.293 4.003 4.293 4.003-1.875 4.003-4.293S13.665 3.85 11.5 3.85ZM5.797 8.143c0-3.263 2.507-5.993 5.703-5.993 3.195 0 5.703 2.73 5.703 5.993 0 1.68-.665 3.218-1.745 4.316l1.325.536c1.722.599 2.494 1.911 2.82 3.008a6.086 6.086 0 0 1 .236 2.034v.013l-.001.005v.002s0 .002-.847-.076l.846.078-.03.325-.24.222c-1.933 1.784-4.066 2.592-5.706 2.954-.735.162-1.376.236-1.862.268v.013h-.007l-.015.001a3.763 3.763 0 0 1-.217.007 7.861 7.861 0 0 1-.26 0 7.861 7.861 0 0 1-.428-.004l-.024-.002h-.025l-.015-.002h-.007v-.013a12.47 12.47 0 0 1-1.863-.268c-1.64-.362-3.772-1.17-5.706-2.954l-.24-.222-.03-.325.847-.078-.847.078V18.05l-.001-.013a2.581 2.581 0 0 1-.009-.172 6.08 6.08 0 0 1 .245-1.862c.326-1.097 1.098-2.41 2.82-3.008l1.325-.536a6.146 6.146 0 0 1-1.745-4.316Zm3.303 5.44-.073.109-2.215.896-.022.008c-1.064.364-1.54 1.14-1.764 1.892a4.383 4.383 0 0 0-.174 1.106A10.603 10.603 0 0 0 9.505 19.9a10.663 10.663 0 0 0 1.995.248 10.663 10.663 0 0 0 1.995-.248 10.603 10.603 0 0 0 4.653-2.306c0-.029-.002-.059-.004-.09a4.381 4.381 0 0 0-.17-1.016c-.224-.753-.7-1.528-1.764-1.892l-.022-.008-2.215-.896-.074-.109a5.452 5.452 0 0 1-2.4.553 5.453 5.453 0 0 1-2.399-.553Z" clip-rule="evenodd"/>
	</symbol>
	<symbol
		id="notification-solid"
		viewBox="0 0 24 24"
		fill="inherit"
		stroke="none">
			<path fill-rule="evenodd" d="M12 3c-1.096 0-2.01.758-2.203 1.76-2.35.539-4.105 2.691-4.105 5.265v3.989a1.105 1.105 0 0 1-.177.598L4.678 15.9c-.465.717.036 1.677.875 1.677h12.894c.84 0 1.34-.96.875-1.677l-.837-1.288a1.096 1.096 0 0 1-.176-.598v-3.99c0-2.572-1.757-4.725-4.106-5.264C14.01 3.758 13.097 3 12 3Zm.213 18c-1.255 0-2.293-.96-2.454-2.202h4.908C14.506 20.041 13.469 21 12.213 21Z" clip-rule="evenodd"/>
	</symbol>
	<symbol
		id="arrow-top"
		viewBox="0 0 24 24"
		fill="inherit"
		stroke="none">
		<path  fill-rule="evenodd" d="M18.74 14.673a1 1 0 0 1-1.413.067L12.5 10.35 7.673 14.74a1 1 0 0 1-1.346-1.48l5.5-5a1 1 0 0 1 1.346 0l5.5 5a1 1 0 0 1 .067 1.413Z" clip-rule="evenodd"/>
	</symbol>
	<symbol
		id="arrow-bottom"
		viewBox="0 0 24 24"
		fill="inherit"
		stroke="none">
		<path fill-rule="evenodd" d="M5.293 8.293a1 1 0 0 1 1.414 0L12 13.586l5.293-5.293a1 1 0 1 1 1.414 1.414l-6 6a1 1 0 0 1-1.414 0l-6-6a1 1 0 0 1 0-1.414Z" clip-rule="evenodd"/>
	</symbol>
	<symbol
		id="arrow-left"
		viewBox="0 0 24 24"
		fill="inherit"
		stroke="none">
		<path fill-rule="evenodd" d="M15.673 6.26a1 1 0 0 1 .067 1.413L11.35 12.5l4.389 4.827a1 1 0 0 1-1.48 1.346l-5-5.5a1 1 0 0 1 0-1.346l5-5.5a1 1 0 0 1 1.413-.067Z" clip-rule="evenodd"/>
	</symbol>
	<symbol
		id="arrow-right"
		viewBox="0 0 24 24"
		fill="inherit"
		stroke="none">
		<path fill-rule="evenodd" d="M9.327 17.74a1 1 0 0 1-.067-1.413L13.65 11.5 9.26 6.673a1 1 0 0 1 1.48-1.346l5 5.5a1 1 0 0 1 0 1.346l-5 5.5a1 1 0 0 1-1.413.067Z" clip-rule="evenodd"/>
	</symbol>
	<symbol
		id="long-arrow-right-outline"
		viewBox="0 0 24 24"
		fill="inherit"
		stroke="none">
			<path fill-rule="evenodd" clip-rule="evenodd" d="M19.2486 8.1556C19.73 8.81806 20.3118 9.52723 20.8258 9.94253C21.3162 10.3387 22.0846 10.742 22.7878 11.0614C23.1284 11.2161 23.4346 11.3427 23.6552 11.4304C23.7652 11.4742 23.8534 11.508 23.9131 11.5306C23.943 11.5419 23.9657 11.5504 23.9805 11.5558L23.9966 11.5618L24 11.563L23.9929 13.4683L23.9894 13.47L23.9734 13.4758C23.9586 13.4811 23.9359 13.4894 23.9061 13.5004C23.8464 13.5224 23.7583 13.5555 23.6483 13.5983C23.4279 13.684 23.1219 13.8079 22.7815 13.9597C22.0784 14.2733 21.3116 14.6699 20.8231 15.0617C20.3095 15.4737 19.7287 16.1813 19.2478 16.8442C19.0149 17.1651 18.8186 17.457 18.6808 17.6684C18.612 17.7738 18.5582 17.8586 18.5221 17.9162C18.504 17.945 18.4904 17.9669 18.4816 17.9812L18.4721 17.9967L18.4701 18C18.4701 18 18.47 18.0001 17.6306 17.4679C16.7913 16.9357 16.7914 16.9355 16.7914 16.9355L16.7932 16.9326L16.797 16.9264L16.8103 16.9047C16.8217 16.8863 16.838 16.86 16.8589 16.8267C16.9007 16.76 16.9609 16.6651 17.0369 16.5487C17.1884 16.3163 17.404 15.9957 17.6609 15.6416C18.1454 14.9738 18.8301 14.112 19.5413 13.5241H0V11.5051H19.5746C18.8543 10.9157 18.1557 10.0378 17.6626 9.35946C17.4057 9.00589 17.19 8.68596 17.0382 8.45407C16.9622 8.3379 16.9018 8.24323 16.86 8.17677C16.8391 8.14352 16.8227 8.11729 16.8113 8.09892L16.798 8.07732L16.7942 8.07113L16.7925 8.06831C16.7925 8.06831 16.7924 8.0681 17.6306 7.53413C18.4689 7.00015 18.4688 7 18.4688 7L18.471 7.00359L18.4806 7.01915C18.4895 7.03342 18.5031 7.05534 18.5212 7.0841C18.5575 7.14164 18.6114 7.22635 18.6804 7.33171C18.8186 7.5429 19.0153 7.83467 19.2486 8.1556Z"/>
	</symbol>
	<symbol
		id="bookmarks-outline"
		viewBox="0 0 24 24"
		fill="inherit"
		stroke="none">
			<path d="M19.5 1.5H6a3 3 0 0 0-3 3v.75h-.75a.75.75 0 0 0 0 1.5H3v10.5h-.75a.75.75 0 0 0 0 1.5H3v.75a3 3 0 0 0 3 3h13.5A1.5 1.5 0 0 0 21 21V3a1.5 1.5 0 0 0-1.5-1.5Zm-3 1.5v5.8l-.413-.434a1.5 1.5 0 0 0-2.175 0L13.5 8.8V3h3Zm3 18H6c-.827 0-1.5-.673-1.5-1.5v-.75h1.708c.26.446.738.75 1.292.75a1.5 1.5 0 1 0 0-3c-.553 0-1.032.304-1.292.75H4.5V6.75h1.708A1.495 1.495 0 0 0 9 6a1.495 1.495 0 0 0-2.792-.75H4.5V4.5C4.5 3.673 5.173 3 6 3h6v8.604c0 .351.403.528.64.279L15 9.398l2.36 2.486c.236.249.64.071.64-.28V3h1.5v18Z"/>
			<path d="M18 14.25a.75.75 0 0 1-.75.75h-4.5a.75.75 0 0 1 0-1.5h4.5a.75.75 0 0 1 .75.75ZM18 18a.75.75 0 0 1-.75.75h-4.5a.75.75 0 0 1 0-1.5h4.5A.75.75 0 0 1 18 18Z"/>
	</symbol>
	<symbol
		id="companies-outline"
		viewBox="0 0 24 24"
		fill="inherit"
		stroke="none">
			<path d="M10.286 14.856a.714.714 0 0 0-.715.714v2.143a.714.714 0 1 0 1.429 0V15.57a.715.715 0 0 0-.714-.714ZM13.857 14.856a.714.714 0 0 0-.714.714v2.143a.714.714 0 1 0 1.428 0V15.57a.714.714 0 0 0-.714-.714ZM16.714 15.57v2.143a.714.714 0 0 0 1.428 0V15.57a.715.715 0 0 0-1.428 0ZM17.32 11.042l.315.636-.321-.636h.007Z"/>
			<path fill-rule="evenodd" d="M4.143 1.75h2.864a1.721 1.721 0 0 1 1.671 1.67l.305 7.226 2.655-1.331a1.365 1.365 0 0 1 2.041 1.122l2.245-1.122a1.364 1.364 0 0 1 2.04 1.124l2.247-1.11a1.414 1.414 0 0 1 1.382.003l.007.003.006.004a1.408 1.408 0 0 1 .643 1.237v9.994a1.679 1.679 0 0 1-1.678 1.678H3.431a1.641 1.641 0 0 1-1.681-1.684v-.004L2.465 3.42V3.42a1.721 1.721 0 0 1 1.671-1.67h.007Zm.24 1.928L3.69 20.32h16.63v-8.904l-2.248 1.112a1.429 1.429 0 0 1-1.38-.003l-.007-.004-.007-.005a1.405 1.405 0 0 1-.642-1.1l-2.25 1.112a1.429 1.429 0 0 1-1.379-.003l-.007-.004-.007-.005a1.406 1.406 0 0 1-.642-1.1L9.475 12.54c-.375.217-.79.36-1.219.42l-.017.002h-.018a.994.994 0 0 1-.748-.339c-.237-.263-.396-.685-.423-1.329l-.29-7.617H4.382Z" clip-rule="evenodd"/>
	</symbol>
	<symbol
		id="dev-outline"
		viewBox="0 0 24 24"
		fill="inherit"
		stroke="none">
			<path fill-rule="evenodd" d="M5.066 2.805A2.75 2.75 0 0 1 7.01 2h12.5a2.75 2.75 0 0 1 2.75 2.75v15a2.75 2.75 0 0 1-2.75 2.75H7.01a2.75 2.75 0 0 1-2.75-2.75v-.625a.875.875 0 0 1 1.75 0v.625a1 1 0 0 0 1 1h12.5a1 1 0 0 0 1-1v-15a1 1 0 0 0-1-1H7.01a1 1 0 0 0-1 1v.625a.875.875 0 1 1-1.75 0V4.75c0-.73.29-1.429.806-1.945Z" clip-rule="evenodd"/>
			<path fill-rule="evenodd" d="M2.256 8.013a.875.875 0 0 1 .62-.257h2.5a.875.875 0 1 1 0 1.75h-2.5a.875.875 0 0 1-.62-1.493Zm0 3.75a.875.875 0 0 1 .62-.257h2.5a.875.875 0 0 1 0 1.75h-2.5a.875.875 0 0 1-.62-1.493Zm3.12 3.243a.875.875 0 1 1 0 1.75h-2.5a.875.875 0 0 1 0-1.75h2.5ZM11.624 8.874a.875.875 0 0 0-.62.257l-2.5 2.5a.876.876 0 0 0 0 1.239l2.5 2.5a.876.876 0 0 0 1.24-1.24l-1.883-1.88 1.882-1.88a.875.875 0 0 0-.619-1.496ZM15.124 15.626a.875.875 0 0 0 .62-.257l2.5-2.5a.875.875 0 0 0-.001-1.239l-2.5-2.5a.876.876 0 1 0-1.238 1.239l1.882 1.88-1.882 1.881a.876.876 0 0 0 .619 1.496Z" clip-rule="evenodd"/>
	</symbol>
	<symbol
		id="events-outline"
		viewBox="0 0 24 24"
		fill="inherit"
		stroke="inherit">
			<path d="M21 17.5h.5v-10h-15v10H21ZM8 3.5h.5v-2h1v2h9v-2h1v2H21A1.5 1.5 0 0 1 22.5 5v12a1.5 1.5 0 0 1-1.5 1.5H7A1.5 1.5 0 0 1 5.5 17V5A1.5 1.5 0 0 1 7 3.5h1ZM2.5 21v.5h14v1H3A1.5 1.5 0 0 1 1.5 21V9.5h1V21Zm16-6.5h-3v-3h3v3Z"/>
	</symbol>
	<symbol
		id="feed-outline"
		viewBox="0 0 24 24"
		fill="inherit"
		stroke="none">
			<path fill-rule="evenodd" d="M20.182 22H4.272A2.25 2.25 0 0 1 2 19.727V3.818C2 2.818 2.818 2 3.818 2h13.637c1 0 1.818.818 1.818 1.818v3.637h.909c1 0 1.818.818 1.818 1.818v10.909c0 1-.818 1.818-1.818 1.818Zm-1.818-1.818V3.818c0-.5-.41-.909-.91-.909H3.819c-.5 0-.909.41-.909.91v15.908c0 .773.591 1.364 1.364 1.364h14.363a1.64 1.64 0 0 1-.272-.91Zm2.727-10.91c0-.5-.41-.908-.91-.908h-.908v11.818c0 .5.409.909.909.909s.909-.41.909-.91V9.274ZM8.909 8.5a.44.44 0 0 1 .636 0l1.955 1.955 1.046-1.046a.44.44 0 0 1 .636 0L15 11.227a.44.44 0 0 1 0 .637.44.44 0 0 1-.636 0l-1.5-1.5-.728.727.137.136a.44.44 0 0 1 0 .637.44.44 0 0 1-.637 0l-2.409-2.41-2.409 2.41a.44.44 0 0 1-.636 0 .44.44 0 0 1 0-.637L8.909 8.5Zm-2.364 6h2.643c.273 0 .455.182.455.455 0 .272-.182.454-.455.454H6.545c-.272 0-.454-.182-.454-.454 0-.273.182-.455.454-.455Zm0 3.182h2.643c.273 0 .455.182.455.454 0 .273-.182.455-.455.455H6.545c-.272 0-.454-.182-.454-.455 0-.272.182-.454.454-.454Zm5.41-3.182h2.772c.273 0 .455.182.455.455 0 .272-.182.454-.455.454h-2.772c-.273 0-.455-.182-.455-.454 0-.273.182-.455.455-.455Zm0 3.182h2.772c.273 0 .455.182.455.454 0 .273-.182.455-.455.455h-2.772c-.273 0-.455-.182-.455-.455 0-.272.182-.454.455-.454Zm2.772-11.273H6.545c-.272 0-.454-.182-.454-.454 0-.273.182-.455.454-.455h8.182c.273 0 .455.182.455.455 0 .272-.182.454-.455.454Z" clip-rule="evenodd"/>
			<path fill-rule="evenodd" d="M3.818 2.4C3.04 2.4 2.4 3.04 2.4 3.818v15.91A1.85 1.85 0 0 0 4.273 21.6h15.909c.779 0 1.418-.64 1.418-1.418V9.272c0-.778-.64-1.417-1.418-1.417h-1.31V3.818c0-.779-.638-1.418-1.417-1.418H3.818ZM1.6 3.818c0-1.22.997-2.218 2.218-2.218h13.637c1.22 0 2.218.997 2.218 2.218v3.237h.509c1.22 0 2.218.997 2.218 2.218v10.909c0 1.22-.997 2.218-2.218 2.218H4.272A2.65 2.65 0 0 1 1.6 19.727V3.818Zm.91 0c0-.72.587-1.309 1.308-1.309h13.637c.72 0 1.309.588 1.309 1.31v16.363c0 .242.069.483.205.687l.415.622H4.273a1.74 1.74 0 0 1-1.764-1.764V3.818Zm1.308-.509c-.279 0-.509.23-.509.51v15.908a.94.94 0 0 0 .964.964h13.754a2.065 2.065 0 0 1-.063-.51V3.819c0-.279-.23-.509-.51-.509H3.819Zm2.679 2.603a.12.12 0 0 0-.006.043.12.12 0 0 0 .008.046l.004.002a.12.12 0 0 0 .042.006h8.182a.121.121 0 0 0 .047-.008l.002-.004a.121.121 0 0 0 .006-.042.121.121 0 0 0-.006-.043l-.002-.004-.004-.002a.121.121 0 0 0-.043-.006H6.545a.12.12 0 0 0-.042.006l-.004.002-.002.004Zm-.564-.57a.854.854 0 0 1 .612-.242h8.182c.227 0 .448.078.613.242a.854.854 0 0 1 .242.613.854.854 0 0 1-.242.612.854.854 0 0 1-.613.242H6.545a.854.854 0 0 1-.612-.242.854.854 0 0 1-.242-.612c0-.228.077-.448.242-.613Zm3.294 3.422c-.004 0-.017 0-.035.019L6.465 11.51c-.019.018-.02.031-.02.036 0 .004.001.017.02.035.018.018.03.019.035.019.004 0 .017 0 .035-.02L9.227 8.89l2.692 2.692c.018.018.031.019.036.019.004 0 .017 0 .035-.02.018-.018.02-.03.02-.034 0-.005-.002-.018-.02-.036l-.42-.42 1.294-1.292 1.782 1.783c.019.018.032.019.036.019.004 0 .017 0 .035-.02.018-.018.02-.03.02-.034 0-.005-.002-.018-.02-.036L12.9 9.692c-.018-.018-.031-.02-.035-.02-.005 0-.017.002-.036.02L11.5 11.02 9.263 8.783c-.019-.018-.032-.02-.036-.02Zm-.6-.547a.84.84 0 0 1 1.201 0L11.5 9.89l.763-.763a.84.84 0 0 1 1.202 0l1.818 1.818a.84.84 0 0 1 0 1.202.84.84 0 0 1-1.202 0l-1.217-1.217-.18.179a.837.837 0 0 1-.128 1.038.84.84 0 0 1-1.202 0L9.227 10.02l-2.126 2.127a.84.84 0 0 1-1.202 0 .84.84 0 0 1 0-1.203l2.727-2.727Zm10.246-.253h1.309c.72 0 1.309.588 1.309 1.309v10.909c0 .72-.588 1.309-1.31 1.309-.72 0-1.308-.588-1.308-1.31V7.965Zm.8.8v11.418c0 .279.23.509.509.509s.509-.23.509-.51V9.274c0-.28-.23-.51-.51-.51h-.508ZM6.497 14.912a.12.12 0 0 0-.006.043.12.12 0 0 0 .008.046l.004.002a.121.121 0 0 0 .042.006h2.643a.121.121 0 0 0 .047-.008l.002-.004a.12.12 0 0 0 .006-.042.12.12 0 0 0-.008-.047l-.004-.002a.121.121 0 0 0-.043-.006H6.545a.121.121 0 0 0-.042.006l-.004.002-.002.004Zm-.564-.57a.854.854 0 0 1 .612-.242h2.643c.228 0 .448.078.613.242a.854.854 0 0 1 .242.613.854.854 0 0 1-.242.612.854.854 0 0 1-.613.242H6.545a.854.854 0 0 1-.612-.242.854.854 0 0 1-.242-.612c0-.228.077-.448.242-.613Zm5.973.57a.12.12 0 0 0-.006.043.12.12 0 0 0 .008.046l.004.002a.12.12 0 0 0 .043.006h2.772a.122.122 0 0 0 .043-.006l.004-.002.002-.004a.12.12 0 0 0 .006-.042.12.12 0 0 0-.006-.043l-.002-.004-.004-.002a.122.122 0 0 0-.043-.006h-2.772a.12.12 0 0 0-.047.008l-.002.004Zm-.564-.57a.853.853 0 0 1 .613-.242h2.772c.227 0 .448.078.613.242a.854.854 0 0 1 .242.613.854.854 0 0 1-.242.612.854.854 0 0 1-.613.242h-2.772a.853.853 0 0 1-.613-.242.853.853 0 0 1-.242-.612c0-.228.078-.448.242-.613Zm-4.845 3.752a.12.12 0 0 0-.006.042.121.121 0 0 0 .008.047l.004.002a.121.121 0 0 0 .042.006h2.643a.121.121 0 0 0 .047-.008l.002-.004a.121.121 0 0 0 .006-.043.12.12 0 0 0-.008-.046l-.004-.002a.121.121 0 0 0-.043-.006H6.545a.121.121 0 0 0-.042.006l-.004.002-.002.004Zm-.564-.57a.854.854 0 0 1 .612-.242h2.643c.228 0 .448.077.613.242a.854.854 0 0 1 .242.612.854.854 0 0 1-.242.613.854.854 0 0 1-.613.242H6.545a.854.854 0 0 1-.612-.242.854.854 0 0 1-.242-.613c0-.227.077-.447.242-.612Zm5.973.57a.121.121 0 0 0-.006.042c0 .024.004.037.006.043l.002.004.004.002a.12.12 0 0 0 .043.006h2.772a.122.122 0 0 0 .047-.008l.002-.004a.122.122 0 0 0 .006-.043.121.121 0 0 0-.006-.042l-.002-.004-.004-.002a.122.122 0 0 0-.043-.006h-2.772a.12.12 0 0 0-.047.008l-.002.004Zm-.564-.57a.853.853 0 0 1 .613-.242h2.772c.227 0 .448.077.613.242a.854.854 0 0 1 .242.612.854.854 0 0 1-.242.613.854.854 0 0 1-.613.242h-2.772a.854.854 0 0 1-.613-.242.854.854 0 0 1-.242-.613c0-.227.078-.447.242-.612Z" clip-rule="evenodd"/>
	</symbol>
	<symbol
		id="jobs-outline"
		viewBox="0 0 24 24"
		fill="inherit"
		stroke="inherit">
			<path d="M15.5 6.5V7H19a2.5 2.5 0 0 1 2.5 2.5v9A2.5 2.5 0 0 1 19 21H5a2.5 2.5 0 0 1-2.5-2.5v-9A2.5 2.5 0 0 1 5 7h3.5V5.5A2.5 2.5 0 0 1 11 3h2a2.5 2.5 0 0 1 2.5 2.5v1ZM14 7h.5V5.5A1.5 1.5 0 0 0 13 4h-2a1.5 1.5 0 0 0-1.5 1.5V7H14Zm-9.816 5.535-.684-.271V18.5A1.5 1.5 0 0 0 5 20h14a1.5 1.5 0 0 0 1.5-1.5v-6.236l-.684.271c-.953.378-1.932.685-2.93.918l-.386.09v.987a.5.5 0 0 1-1 0V13.747l-.567.078c-.972.132-1.952.2-2.933.205a22.51 22.51 0 0 1-2.933-.205l-.567-.078V14.53a.5.5 0 0 1-1 0v-.987l-.386-.09a20.774 20.774 0 0 1-2.93-.918Zm16.01-1.264.306-.13V9.5A1.5 1.5 0 0 0 19 8H5a1.5 1.5 0 0 0-1.5 1.5V11.162l.306.129c.996.42 2.024.763 3.073 1.024l.621.155v-.97a.5.5 0 0 1 1 0v1.17l.425.064a20.61 20.61 0 0 0 6.15 0l.425-.064V11.5a.5.5 0 0 1 1 0v.95l.62-.155a20.903 20.903 0 0 0 3.074-1.024Z"/>
	</symbol>
	<symbol
		id="levels-outline"
		viewBox="0 0 24 24"
		fill="inherit"
		stroke="none">
			<path d="M5.125 22h-1.25A1.875 1.875 0 0 1 2 20.123V13.25a1.875 1.875 0 0 1 1.875-1.875h1.25A1.875 1.875 0 0 1 7 13.25v6.875A1.875 1.875 0 0 1 5.125 22Zm-1.25-9.376a.625.625 0 0 0-.625.625v6.875a.625.625 0 0 0 .625.625h1.25a.625.625 0 0 0 .625-.625V13.25a.625.625 0 0 0-.625-.625h-1.25Z"/>
			<path fill-rule="evenodd" d="M3.875 11.474A1.775 1.775 0 0 0 2.1 13.25v6.875A1.775 1.775 0 0 0 3.875 21.9h1.25A1.775 1.775 0 0 0 6.9 20.124V13.25a1.775 1.775 0 0 0-1.775-1.775h-1.25Zm-1.397.379c.37-.37.873-.579 1.397-.579h1.25A1.975 1.975 0 0 1 7.1 13.25v6.875A1.975 1.975 0 0 1 5.125 22.1h-1.25A1.975 1.975 0 0 1 1.9 20.124V13.25c0-.524.208-1.026.578-1.396Zm.884.883a.725.725 0 0 1 .513-.212h1.25a.725.725 0 0 1 .725.725v6.875a.725.725 0 0 1-.725.725h-1.25a.725.725 0 0 1-.725-.725V13.25c0-.192.076-.377.212-.513Zm.513-.012a.525.525 0 0 0-.525.525v6.875a.525.525 0 0 0 .525.525h1.25a.525.525 0 0 0 .525-.525V13.25a.525.525 0 0 0-.525-.525h-1.25Z" clip-rule="evenodd"/>
			<path d="M11.375 22h-1.25a1.875 1.875 0 0 1-1.875-1.876v-8.75A1.875 1.875 0 0 1 10.125 9.5h1.25a1.875 1.875 0 0 1 1.875 1.875v2.5a.625.625 0 0 1-1.25 0v-2.5a.625.625 0 0 0-.625-.625h-1.25a.625.625 0 0 0-.625.625v8.75a.625.625 0 0 0 .625.625h1.25a.625.625 0 0 0 .625-.625v-3.75a.625.625 0 1 1 1.25 0v3.75A1.875 1.875 0 0 1 11.375 22Z"/>
			<path fill-rule="evenodd" d="M10.125 9.6a1.775 1.775 0 0 0-1.775 1.774v8.75a1.775 1.775 0 0 0 1.775 1.775h1.25a1.775 1.775 0 0 0 1.775-1.775v-3.75a.525.525 0 1 0-1.05 0v3.75a.725.725 0 0 1-.725.725h-1.25a.725.725 0 0 1-.725-.725v-8.75a.725.725 0 0 1 .725-.725h1.25a.725.725 0 0 1 .725.725v2.5a.525.525 0 1 0 1.05 0v-2.5A1.775 1.775 0 0 0 11.375 9.6h-1.25Zm-1.397.378c.37-.37.873-.579 1.397-.579h1.25a1.975 1.975 0 0 1 1.975 1.975v2.5a.725.725 0 0 1-1.45 0v-2.5a.525.525 0 0 0-.525-.525h-1.25a.525.525 0 0 0-.525.525v8.75a.525.525 0 0 0 .525.525h1.25a.525.525 0 0 0 .525-.525v-3.75a.725.725 0 1 1 1.45 0v3.75a1.975 1.975 0 0 1-1.975 1.975h-1.25a1.975 1.975 0 0 1-1.975-1.975v-8.75c0-.524.208-1.026.578-1.396Z" clip-rule="evenodd"/>
			<path d="M18.504 7.253a.525.525 0 0 1 .37-.154h1.347L17 3.422 13.78 7.1h1.345a.525.525 0 0 1 .525.525v.093l.2.032v-.125a.725.725 0 0 0-.725-.725h-.905L17 3.726l2.78 3.173h-.905a.725.725 0 0 0-.725.725v.493l.2.032v-.525c0-.14.055-.273.154-.371Z"/>
			<path d="M18.138 20.637a.725.725 0 0 0 .212-.513V8.15l-.2-.032v12.007a.525.525 0 0 1-.525.525h-1.25a.525.525 0 0 1-.525-.525V7.75l-.2-.032v12.407a.725.725 0 0 0 .725.725h1.25a.725.725 0 0 0 .513-.212Z"/>
			<path d="M12.107 7.547a.526.526 0 0 1 .124-.27l.083-.094-.233-.037a.725.725 0 0 0 .544 1.203H14.4v11.775a1.975 1.975 0 0 0 1.975 1.975h1.25a1.975 1.975 0 0 0 1.975-1.975V8.35l-.2-.032v11.807a1.775 1.775 0 0 1-1.775 1.775h-1.25a1.775 1.775 0 0 1-1.775-1.775V8.15h-1.975a.525.525 0 0 1-.518-.602Z"/>
			<path fill-rule="evenodd" d="M16.784 2.146a.525.525 0 0 0-.178.132l-4.292 4.905-.083.094a.526.526 0 0 0 .394.872H14.6v11.975a1.775 1.775 0 0 0 1.775 1.775h1.25a1.775 1.775 0 0 0 1.775-1.775V8.15h1.975a.525.525 0 0 0 .394-.871l-.085-.097-4.29-4.903A.526.526 0 0 0 17 2.1h-.004a.525.525 0 0 0-.212.046Zm2.09 4.953a.525.525 0 0 0-.524.525v12.5a.725.725 0 0 1-.725.725h-1.25a.725.725 0 0 1-.725-.725v-12.5a.525.525 0 0 0-.525-.525h-1.346L17 3.422 20.222 7.1h-1.346Z" clip-rule="evenodd"/>
			<path d="M16.606 2.278a.525.525 0 0 1 .39-.178H17a.525.525 0 0 1 .394.178l4.29 4.903.223-.035-4.375-5a.724.724 0 0 0-.536-.246.725.725 0 0 0-.54.245l-4.375 5 .233.038 4.292-4.905Z"/>
			<path d="M21.66 8.065a.525.525 0 0 1-.285.084H19.4v.168l.2.032h1.763a.725.725 0 0 0 .544-1.203l-.223.035.085.097a.526.526 0 0 1-.11.787Z"/>
	</symbol>
	<symbol
		id="vk-colores"
		viewBox="0 0 24 24"
		fill="inherit"
		stroke="none">
			<path fill-rule="evenodd" d="M21.53 6.826c.148-.466 0-.805-.657-.805H18.69c-.55 0-.805.297-.953.614 0 0-1.123 2.712-2.69 4.47-.508.508-.742.678-1.017.678-.148 0-.339-.17-.339-.636V6.805c0-.55-.17-.805-.635-.805H9.625c-.339 0-.55.254-.55.508 0 .53.783.657.868 2.14v3.22c0 .698-.127.825-.402.825-.742 0-2.542-2.732-3.622-5.846C5.707 6.233 5.495 6 4.944 6H2.741C2.106 6 2 6.297 2 6.614c0 .572.741 3.453 3.453 7.266 1.8 2.605 4.363 4.003 6.672 4.003 1.398 0 1.567-.318 1.567-.847v-1.97c0-.636.127-.742.572-.742.318 0 .89.17 2.182 1.42 1.482 1.482 1.737 2.16 2.563 2.16h2.181c.636 0 .932-.318.763-.932-.19-.614-.91-1.504-1.843-2.563-.508-.593-1.27-1.25-1.504-1.567-.317-.424-.233-.593 0-.975-.02 0 2.648-3.77 2.923-5.04Z" clip-rule="evenodd"/>
	</symbol>
		<symbol
		id="dzen-colores"
		viewBox="0 0 24 24"
		fill="inherit"
		stroke="none">
			<path d="M22 12.107v-.214c-4.429-.143-6.45-.25-8.071-1.822C12.357 8.45 12.243 6.43 12.107 2h-.214c-.143 4.429-.25 6.45-1.822 8.071C8.45 11.643 6.43 11.757 2 11.893v.214c4.429.143 6.45.25 8.071 1.822 1.572 1.621 1.686 3.642 1.822 8.071h.214c.143-4.429.25-6.45 1.822-8.071 1.621-1.572 3.642-1.686 8.071-1.822Z"/>
	</symbol>
	<symbol
		id="twitter-colores"
		viewBox="0 0 24 24"
		fill="inherit"
		stroke="none">
			<path d="M8.662 19.847A10.35 10.35 0 0 1 3 18.164c.293.034.587.051.881.051a7.348 7.348 0 0 0 4.588-1.603 3.665 3.665 0 0 1-2.137-.74 3.751 3.751 0 0 1-1.314-1.863 3.612 3.612 0 0 0 1.668-.064 3.686 3.686 0 0 1-2.128-1.3 3.782 3.782 0 0 1-.836-2.374v-.047c.513.29 1.087.45 1.673.469A3.75 3.75 0 0 1 3.847 8.42a3.795 3.795 0 0 1 .407-2.73A10.517 10.517 0 0 0 7.647 8.47a10.371 10.371 0 0 0 4.216 1.139 3.798 3.798 0 0 1 .228-2.403 3.728 3.728 0 0 1 1.626-1.763 3.65 3.65 0 0 1 2.347-.392 3.68 3.68 0 0 1 2.097 1.14 7.366 7.366 0 0 0 2.341-.91 3.755 3.755 0 0 1-1.623 2.074A7.332 7.332 0 0 0 21 6.76a7.577 7.577 0 0 1-1.844 1.94c.009.16.012.322.012.485 0 4.95-3.716 10.66-10.51 10.66"/>
	</symbol>
	<symbol
		id="telegram-colores"
		viewBox="0 0 24 24"
		fill="inherit"
		stroke="none">
			<path d="M3.272 11.88c1.841-1.007 3.897-1.847 5.817-2.69 3.305-1.383 6.622-2.742 9.973-4.007.652-.216 1.823-.426 1.938.532-.063 1.357-.322 2.706-.5 4.055-.45 2.966-.97 5.922-1.478 8.878-.175.985-1.418 1.495-2.214.865-1.912-1.282-3.839-2.55-5.726-3.862-.619-.623-.045-1.518.507-1.963 1.575-1.54 3.245-2.848 4.737-4.468.403-.964-.787-.151-1.179.098-2.156 1.474-4.26 3.038-6.532 4.333-1.161.634-2.515.092-3.675-.261-1.04-.428-2.565-.859-1.668-1.51Z"/>
	</symbol>
	<symbol
		id="rss"
		viewBox="0 0 24 24"
		fill="inherit"
		stroke="none">
			<path d="M3.003 12.604c2.248 0 4.36.878 5.948 2.475a8.428 8.428 0 0 1 2.467 5.988h3.464c0-6.576-5.33-11.927-11.88-11.927v3.464Zm.005-6.14c8.01 0 14.528 6.553 14.528 14.608H21C21 11.106 12.928 3 3.008 3v3.464Zm4.79 12.188a2.4 2.4 0 1 1-4.799 0 2.4 2.4 0 0 1 4.8 0Z"/>
	</symbol>
	<symbol
		id="info-outline"
		viewBox="0 0 24 24"
		fill="inherit"
		stroke="none">
			<path d="M12 2a10 10 0 1 0 10 10A10.011 10.011 0 0 0 12 2Zm0 18a8 8 0 1 1 8-8 8.01 8.01 0 0 1-8 8Zm0-8.5a1 1 0 0 0-1 1v3a1 1 0 0 0 2 0v-3a1 1 0 0 0-1-1Zm0-4a1.25 1.25 0 1 0 0 2.5 1.25 1.25 0 0 0 0-2.5Z"/>
	</symbol>
	<symbol
		id="copy-outline"
		viewBox="0 0 24 24"
		fill="none"
		stroke="inherit">
			<path stroke="inherit" stroke-linejoin="round" stroke-width="0.888889" d="M7.556 8.444V4.89c0-.491.398-.889.888-.889h9.778c.491 0 .89.398.89.889v9.778c0 .49-.399.889-.89.889h-2.666m-8-7.112H4.889a.889.889 0 0 0-.889.89v9.777c0 .491.398.889.889.889h9.778c.49 0 .889-.398.889-.889v-3.555m-8-7.112h7.11c.492 0 .89.398.89.89v6.222"/>
	</symbol>
	<symbol
		id="bug-solid"
		viewBox="0 0 24 24"
		fill="inherit"
		stroke="none">
			<path fill-rule="evenodd" d="M7.566 6.36h8.72a4.36 4.36 0 0 0-8.72 0Zm-2.25-.55 2.14 2.18h9l2.14-2.17a1.22 1.22 0 0 1 1.73 0 1.26 1.26 0 0 1 0 1.78l-1.85 1.83v2.28h2.23a1.23 1.23 0 0 1-.07 2.46h-2.16v.62a5.09 5.09 0 0 1-.51 2.39l2.37 2.34a1.244 1.244 0 1 1-1.77 1.75l-2.12-2.11a5.59 5.59 0 0 1-3.53 1.25v-9.52a.48.48 0 0 0-.46-.48h-1a.47.47 0 0 0-.49.48v9.52a5.59 5.59 0 0 1-3.53-1.25l-2.08 2.11a1.21 1.21 0 0 1-1.77 0 1.2 1.2 0 0 1 0-1.75l2.38-2.34a5.21 5.21 0 0 1-.52-2.39v-.62h-2.18a1.23 1.23 0 1 1-.07-2.46h2.23V9.43l-1.84-1.84a1.26 1.26 0 0 1 .396-2.046 1.22 1.22 0 0 1 1.333.266Z" clip-rule="evenodd"/>
	</symbol>
	<symbol
		id="cancel-outline"
		viewBox="0 0 24 24"
		fill="inherit"
		stroke="none">
			<path fill-rule="evenodd" d="m12 10.59 5.24-5.25a1 1 0 1 1 1.42 1.42L13.4 12l5.25 5.24a1 1 0 0 1-1.42 1.42L12 13.4l-5.24 5.25a1 1 0 0 1-1.42-1.42L10.6 12 5.34 6.76a1 1 0 1 1 1.42-1.42L12 10.6Z" clip-rule="evenodd"/>
	</symbol>
	<symbol
		id="bookmark-outline"
		viewBox="0 0 24 24"
		fill="inherit"
		stroke="inherit">
		<path d="M5.613 20.5H5.61l-.076.185a.061.061 0 0 1-.027-.021l-.408.285.408-.285a.041.041 0 0 1-.008-.021V5.35c0-.487.2-.956.558-1.304A1.96 1.96 0 0 1 7.421 3.5h8.358a1.96 1.96 0 0 1 1.363.546c.359.348.558.817.558 1.304l-.002 15.292a.042.042 0 0 1-.007.02.062.062 0 0 1-.028.021l-.006.003a.078.078 0 0 1-.071-.006l-5.687-4.24-.299-.222-.299.223-5.688 4.24a.078.078 0 0 1-.071.006l-.005-.002.076-.185Z"/>
	</symbol>
	<symbol
		id="stars-outline"
		viewBox="0 0 24 24"
		fill="inherit"
		stroke="none">
			<path fill-rule="evenodd" d="M18.667 1.063c.517 0 .937.42.937.937v2.396H22a.937.937 0 1 1 0 1.875h-2.396v2.396a.938.938 0 0 1-1.875 0V6.27h-2.396a.938.938 0 0 1 0-1.875h2.396V2c0-.518.42-.938.938-.938ZM10.57 3.92c.368 0 .702.215.854.55l2.533 5.572 5.573 2.533a.937.937 0 0 1 0 1.707l-5.573 2.533-2.533 5.573a.937.937 0 0 1-1.707 0l-2.533-5.573-5.573-2.533a.937.937 0 0 1 0-1.707l5.573-2.533 2.533-5.573a.938.938 0 0 1 .853-.55Zm0 3.203-1.825 4.015a.937.937 0 0 1-.465.466l-4.015 1.825 4.015 1.825c.206.094.372.259.465.465l1.825 4.015 1.825-4.015a.938.938 0 0 1 .466-.465l4.015-1.825-4.015-1.825a.937.937 0 0 1-.466-.466l-1.825-4.015Z" clip-rule="evenodd"/>
	</symbol>
	<symbol
		id="edit-solid"
		viewBox="0 0 24 24"
		fill="inherit"
		stroke="none">
			<path fill-rule="evenodd" d="m14.367 5.197 1.644-1.699a1.667 1.667 0 0 1 2.377-.02l2.124 2.125a1.667 1.667 0 0 1 0 2.357l-1.713 1.713a.417.417 0 0 1-.592-.002L14.37 5.779a.416.416 0 0 1-.003-.582Zm3.235 5.797-9.175 9.175a.417.417 0 0 1-.227.117l-4.23.702a.833.833 0 0 1-.958-.966l.734-4.192a.417.417 0 0 1 .116-.223l9.177-9.177a.417.417 0 0 1 .59 0l3.973 3.974a.417.417 0 0 1 0 .59ZM5.56 19.639l2.292-.396v-1.271H6.143v-1.709H4.831l-.396 2.292L5.56 19.64Z" clip-rule="evenodd"/>
	</symbol>
	<symbol
		id="hamburger-outline"
		viewBox="0 0 24 24"
		fill="inherit"
		stroke="none">
			<path fill-rule="evenodd" d="M2 10.236a1 1 0 0 1 1-1h18a1 1 0 1 1 0 2H3a1 1 0 0 1-1-1ZM2 6a1 1 0 0 1 1-1h18a1 1 0 1 1 0 2H3a1 1 0 0 1-1-1ZM2 14a1 1 0 0 1 1-1h18a1 1 0 1 1 0 2H3a1 1 0 0 1-1-1ZM2 18.236a1 1 0 0 1 1-1h18a1 1 0 1 1 0 2H3a1 1 0 0 1-1-1Z" clip-rule="evenodd"/>
	</symbol>
	<symbol
		id="fire-outline"
		viewBox="0 0 24 24"
		fill="inherit"
		stroke="none">
			<path d="m8.86 8.686-.002.002-.002.001.004-.003Zm8.848-.169a1.1 1.1 0 0 0-.204-.158.878.878 0 0 0-1.244.372 5.215 5.215 0 0 1-1.243 1.607 7.983 7.983 0 0 0-.928-5.33 7.812 7.812 0 0 0-2.865-2.89.877.877 0 0 0-1.187.298.915.915 0 0 0-.138.43A6.43 6.43 0 0 1 9.25 5.31a6.33 6.33 0 0 1-1.549 2.005l-.205.17a7.62 7.62 0 0 0-1.766 1.683 8.184 8.184 0 0 0-1.56 3.38 8.257 8.257 0 0 0 .091 3.734 8.169 8.169 0 0 0 1.725 3.298 7.99 7.99 0 0 0 2.993 2.163.876.876 0 0 0 .832-.086.9.9 0 0 0 .393-.751.966.966 0 0 0-.045-.282 6.413 6.413 0 0 1-.169-2.334 8.06 8.06 0 0 0 3.834 3.631c.2.092.427.104.636.035a7.98 7.98 0 0 0 3.395-2.197 8.176 8.176 0 0 0 1.913-3.601 8.267 8.267 0 0 0-.054-4.093 8.167 8.167 0 0 0-2.007-3.548Zm-3.47 11.601a6.211 6.211 0 0 1-2.007-1.646 6.337 6.337 0 0 1-1.173-2.334 8.171 8.171 0 0 1-.16-.871.91.91 0 0 0-.234-.498.885.885 0 0 0-.646-.283.877.877 0 0 0-.445.121.896.896 0 0 0-.326.332 8.21 8.21 0 0 0-1.071 4.266 6.287 6.287 0 0 1-1.595-1.88 6.42 6.42 0 0 1-.566-4.835 6.355 6.355 0 0 1 1.116-2.208A5.867 5.867 0 0 1 8.52 8.964a.664.664 0 0 0 .065-.05s.264-.221.273-.226a8.129 8.129 0 0 0 2.577-4.19 6.121 6.121 0 0 1 1.837 3.444 6.182 6.182 0 0 1-.605 3.87.917.917 0 0 0 .106.998.875.875 0 0 0 .947.284 6.984 6.984 0 0 0 3.432-2.43 6.434 6.434 0 0 1 .785 5.443 6.354 6.354 0 0 1-1.399 2.436 6.218 6.218 0 0 1-2.3 1.575Z"/>
	</symbol>
	<symbol
		id="comment-outline"
		viewBox="0 0 24 24"
		fill="inherit"
		stroke="none">
			<path d="M6.257 6.724a.524.524 0 0 0-.379.164.575.575 0 0 0-.157.397c0 .15.056.292.157.398.1.105.237.164.38.164H16.92c.143 0 .28-.06.38-.164a.575.575 0 0 0 .157-.398.575.575 0 0 0-.157-.397.524.524 0 0 0-.38-.164H6.257ZM6.257 9.588a.524.524 0 0 0-.379.165.575.575 0 0 0-.157.397c0 .149.056.292.157.397.1.105.237.165.38.165H16.92c.143 0 .28-.06.38-.165a.575.575 0 0 0 .157-.397.575.575 0 0 0-.157-.397.524.524 0 0 0-.38-.165H6.257ZM13.415 12.713a.526.526 0 0 0-.366-.172H6.25a.526.526 0 0 0-.366.172.576.576 0 0 0-.15.39c0 .145.053.285.15.39a.527.527 0 0 0 .366.171h6.798a.526.526 0 0 0 .366-.172.576.576 0 0 0 0-.78Z"/>
			<path fill-rule="evenodd" d="M20.252 3.784A2.499 2.499 0 0 0 18.448 3H4.552c-.676 0-1.325.283-1.804.784A2.74 2.74 0 0 0 2 5.672v9.201c0 .627.113 1.215.591 1.716.356.445.84.754 1.378.883v2.97c0 .112.03.221.09.314a.542.542 0 0 0 .241.208c.121.039.19.04.312.031a.531.531 0 0 0 .275-.156l3.146-3.294h10.415a2.499 2.499 0 0 0 1.804-.783c.478-.501.747-1.18.748-1.889v-9.2a2.74 2.74 0 0 0-.748-1.89Zm-16.746.793c.278-.291.654-.454 1.047-.454h13.895c.393 0 .769.163 1.047.454.277.29.433.684.433 1.095v9.201c0 .411-.156.806-.433 1.096-.278.29-.654.454-1.047.454H7.808a.527.527 0 0 0-.378.164L5.04 19.09v-2.11a.576.576 0 0 0-.152-.392.526.526 0 0 0-.371-.17h-.002a1.42 1.42 0 0 1-.734-.22 1.48 1.48 0 0 1-.29-.24 1.576 1.576 0 0 1-.42-1.084v-9.2c0-.412.157-.806.434-1.096Z" clip-rule="evenodd"/>
			<path fill-rule="evenodd" d="M3.073 14.873c-.002.405.148.795.419 1.083a1.48 1.48 0 0 0 .013.013 1.586 1.586 0 0 1-.432-1.096Zm3.184-5.285a.524.524 0 0 0-.379.165.575.575 0 0 0-.157.397c0 .149.056.292.157.397.1.105.237.165.38.165H16.92c.143 0 .28-.06.38-.165a.575.575 0 0 0 .157-.397.575.575 0 0 0-.157-.397.524.524 0 0 0-.38-.165H6.257Zm7.158 3.125a.526.526 0 0 0-.366-.172H6.25a.526.526 0 0 0-.366.172.576.576 0 0 0-.15.39c0 .145.053.285.15.39a.527.527 0 0 0 .366.171h6.798a.526.526 0 0 0 .366-.172.576.576 0 0 0 0-.78Zm-7.158-5.99a.524.524 0 0 0-.379.165.575.575 0 0 0-.157.397c0 .15.056.292.157.398.1.105.237.164.38.164H16.92c.143 0 .28-.06.38-.164a.575.575 0 0 0 .157-.398.575.575 0 0 0-.157-.397.524.524 0 0 0-.38-.164H6.257Z" clip-rule="evenodd"/>
	</symbol>
	<symbol
		id="eye-outline"
		viewBox="0 0 24 24"
		fill="inherit"
		stroke="none">
			<path fill-rule="evenodd" d="M4.655 8.482c1.627-1.627 4.178-3.27 7.815-3.27 3.637 0 6.188 1.643 7.815 3.27a12.917 12.917 0 0 1 1.78 2.231 10.885 10.885 0 0 1 .538.957l.028.06.009.018.002.005v.002h.001l-.548.245.548.244-.001.003-.002.005-.009.017a4.546 4.546 0 0 1-.136.275 10.91 10.91 0 0 1-.43.742c-.383.61-.968 1.42-1.78 2.232-1.627 1.627-4.178 3.27-7.815 3.27-3.637 0-6.188-1.643-7.815-3.27a12.923 12.923 0 0 1-1.78-2.232 10.907 10.907 0 0 1-.538-.956 4.352 4.352 0 0 1-.029-.06l-.007-.018-.003-.005v-.002l-.001-.001.548-.244a53.76 53.76 0 0 1-.548-.245l.001-.002.003-.005.007-.018a4.446 4.446 0 0 1 .137-.274c.095-.182.237-.438.43-.743.383-.609.968-1.42 1.78-2.231ZM2.845 12l-.548-.244a.6.6 0 0 0 0 .487L2.845 12Zm.67 0c.082.156.206.379.375.647.347.551.879 1.287 1.614 2.022 1.466 1.467 3.728 2.918 6.966 2.918s5.5-1.451 6.966-2.918a11.721 11.721 0 0 0 1.614-2.022c.169-.268.293-.491.375-.647a9.727 9.727 0 0 0-.375-.647 11.718 11.718 0 0 0-1.614-2.023c-1.466-1.466-3.728-2.918-6.966-2.918S6.97 7.864 5.504 9.33a11.72 11.72 0 0 0-1.614 2.023c-.169.268-.293.49-.375.647Zm18.58 0 .548.243a.6.6 0 0 0 0-.487l-.548.244Z" clip-rule="evenodd"/>
			<path fill-rule="evenodd" d="M12.47 9.162a2.838 2.838 0 1 0 0 5.675 2.838 2.838 0 0 0 0-5.675ZM8.432 12a4.037 4.037 0 1 1 8.075 0 4.037 4.037 0 0 1-8.075 0Z" clip-rule="evenodd"/>
	</symbol>
	<symbol
		id="heart-outline"
		viewBox="0 0 24 24"
		fill="inherit"
		stroke="inherit">
			<path stroke-linejoin="round" d="m19.727 12.967.397.304-.397-.304c-1.095 1.43-2.636 2.816-4.32 4.326l-.002.002-.004.004c-1.098.985-2.244 2.014-3.404 3.174-1.158-1.159-2.303-2.186-3.4-3.171l-.003-.003c-1.684-1.511-3.226-2.898-4.321-4.33C3.046 11.366 2.5 9.869 2.5 8.236 2.5 5.623 4.618 3.5 7.217 3.5c.939 0 1.663.188 2.258.518.597.331 1.095.823 1.556 1.477.182.258.357.542.53.85a.5.5 0 0 0 .872 0c.173-.308.348-.592.53-.85.46-.654.96-1.146 1.556-1.477.595-.33 1.319-.518 2.258-.518 2.603 0 4.723 2.124 4.723 4.736 0 1.633-.547 3.128-1.773 4.73Z"/>
	</symbol>
	<symbol
		id="dots-outline"
		viewBox="0 0 24 24"
		fill="inherit"
		stroke="none">
			<circle cx="12" cy="5.65079" r="1.65079"/>
  			<circle cx="12" cy="12" r="1.65079"/>
			<circle cx="12" cy="18.3492" r="1.65079"/>
	</symbol>
	<symbol
		id="pin-outline"
		viewBox="0 0 24 24"
		fill="inherit"
		stroke="none">
			<path d="m20.759 8.146-7.287-6.033a.49.49 0 0 0-.69.065l-1.713 2.068a.486.486 0 0 0-.054.079l-.011.028c-.01.02-.019.04-.025.06-.004.012-.005.024-.008.035-.004.02-.01.039-.012.06a.46.46 0 0 0 0 .097l.337 3.578-1.535 1.853-3.578.336a.47.47 0 0 0-.095.02c-.022.006-.042.015-.062.024l-.027.011a.528.528 0 0 0-.062.041l-.018.012a.48.48 0 0 0-.068.068l-1.712 2.068a.49.49 0 0 0 .065.69L7.47 16.01l-4.294 5.186a.49.49 0 0 0 .756.626l4.294-5.186 3.265 2.703a.49.49 0 0 0 .69-.064l1.713-2.068a.486.486 0 0 0 .053-.08c.004-.005.005-.012.008-.018a.522.522 0 0 0 .03-.07l.004-.023a.485.485 0 0 0 .015-.168l-.336-3.578 1.534-1.854 3.578-.336a.472.472 0 0 0 .096-.02c.018-.005.034-.013.05-.02l.038-.016c.02-.01.037-.023.055-.036.008-.006.017-.01.025-.017a.48.48 0 0 0 .068-.068l1.711-2.067a.49.49 0 0 0-.064-.69Zm-5.848 2.313a.492.492 0 0 0-.1.019c-.008.002-.015.007-.024.01-.021.008-.043.015-.064.027-.013.006-.024.016-.037.024-.014.01-.029.017-.042.028a.503.503 0 0 0-.069.069L12.783 12.8a.512.512 0 0 0-.055.08l-.015.035c-.007.018-.016.035-.022.054-.005.016-.007.032-.01.048-.003.015-.007.03-.008.045a.489.489 0 0 0-.001.098l.245 2.6-5.463-4.523 2.601-.245c.011 0 .02-.004.031-.006a.443.443 0 0 0 .101-.027l.04-.016a.446.446 0 0 0 .056-.034l.03-.02a.484.484 0 0 0 .074-.072l1.794-2.167a.506.506 0 0 0 .054-.08c.007-.012.01-.025.016-.037.007-.017.016-.034.021-.052.005-.016.007-.033.01-.05.004-.014.008-.028.01-.043a.5.5 0 0 0 0-.097l-.245-2.6 5.462 4.522-2.598.245Zm-3.172 7.811-6.53-5.406 1.085-1.312 6.53 5.407-1.085 1.311Zm6.93-8.37-6.531-5.406 1.086-1.312 6.53 5.407L18.67 9.9Z"/>
	</symbol>
	<symbol
		id="quote-solid"
		viewBox="0 0 24 24"
		fill="inherit"
		stroke="none">
			<path fill-rule="evenodd" clip-rule="evenodd" d="M7.893 6.77c.683-.084 1.175-.771 1.1-1.534-.076-.762-.691-1.312-1.374-1.227-3.186.394-5.15 2.496-6.04 4.994-.816 2.289-.743 4.934.051 6.924A4.748 4.748 0 0 0 11 14.855a4.746 4.746 0 0 0-7.35-3.967 6.73 6.73 0 0 1 .241-.858c.58-1.624 1.804-2.988 4.002-3.26ZM20.893 6.77c.683-.084 1.175-.771 1.1-1.534-.076-.762-.691-1.312-1.374-1.227-3.186.394-5.15 2.496-6.04 4.994-.594 1.667-.717 3.522-.433 5.177a4.746 4.746 0 1 0 2.568-3.566c.05-.198.11-.393.177-.584.58-1.624 1.804-2.988 4.002-3.26Z"/>
	</symbol>
	<symbol
		id="check-outline"
		viewBox="0 0 24 24"
		fill="none"
		stroke="inherit">
			<path  stroke-linecap="round" stroke-linejoin="round" stroke-width="2" d="M5.41 12.333 10.464 17l7.944-10"/>
	</symbol>
	<symbol
		id="sloth-emoji"
		viewBox="0 0 24 24"
		fill="none"
		stroke="inherit">
			<path
				fill="#7A5C44"
				d="M4 14a1.333 1.333 0 0 1-1.333-1.333v-10C2.667 1.93 3.263 2 4 2s1.333-.07 1.333.667c0 0-.404 4.282 0 7.998C5.693 13.98 8 14.667 8 14.667 8 15.403 4.737 14 4 14Zm9.333 3.333A1.333 1.333 0 0 1 12 15.999V2c0-.736.597-.666 1.333-.666.737 0 1.333-.07 1.333.666 0 0-.297 3.406-.083 6.198.213 2.792.083 7.802.083 7.802 0 .736-.596 1.334-1.333 1.334Z" />
			<path
				fill="#662113"
				d="M24 2.667 0 5.333V2.667l24-1.334v1.334Z" />
			<path
				fill="#A78E81"
				d="M15.096 12.27c-.422.751-.909 1.207-1.44 1.463-.268.027-.755-.057-.945-.962a21.46 21.46 0 0 1-.445-4.396c0-2.763.4-5.828.4-5.828 0-.62.942-.624 1.391-.661-.104-.555-1.166-.553-2.456-.553-.968 0-1.504.716-1.6 1.534-.099.818-.527 4.231-.497 6.666a56.18 56.18 0 0 0 .21 4.011c-.528-.134-1.057-.262-1.576-.327-1.871-.238-4.337-.357-4.753-3.921-.329-2.821-.052-6.083-.052-6.083 0-.619.942-.772 1.391-.808-.104-.555-1.119-.608-2.407-.522-.966.064-1.494.562-1.65 1.65C.415 5.286.385 9.325.533 12.117c.083 1.559.327 7.174 2.733 9.357 1.405 1.275 3.792 2.028 6.734 1.86 2.79-.16 5.082-1.198 6.365-2.276 2.228-1.871 2.727-3.225 2.82-4.69.148-2.368-3.172-5.729-4.089-4.097Z" />
			<path
				fill="#A78E81"
				d="M23.35 15.114c-1.4 2.134-4.185 2.782-7.173.821-2.988-1.96-3.502-4.772-2.1-6.906 1.4-2.134 4.991-1.723 6.922-.416 1.93 1.306 3.752 4.367 2.351 6.501Z" />
			<path
				fill="#E2D2C7"
				d="M22.18 15.452c-1 1.525-3.442 1.99-6.003.31-2.56-1.68-2.945-4.001-1.945-5.526 1-1.525 2.863-1.28 5.424.4 2.56 1.68 3.525 3.292 2.525 4.816Z" />
			<path
				fill="#292F33"
				d="M13.71 9.71a4.22 4.22 0 0 0-.328 2.366c1 .293 2.425.647 3.1.506 1.098-.228 1.466-1.211 1.305-1.987-.224-1.078-2.128-1.696-4.077-.886Z" />
			<path
				fill="#F5F8FA"
				d="M15.593 11.843a.792.792 0 1 0 0-1.584.792.792 0 0 0 0 1.584Z" />
			<path
				fill="#292F33"
				d="M22.871 15.72a4.22 4.22 0 0 1-2.04 1.243c-.666-.799-1.558-1.967-1.699-2.642-.228-1.098.528-1.826 1.304-1.988 1.078-.223 2.403 1.277 2.435 3.388Z" />
			<path
				fill="#F5F8FA"
				d="M20.892 15.32a.792.792 0 1 0 0-1.584.792.792 0 0 0 0 1.584Z" />
			<path
				fill="#292F33"
				d="M18.698 14.983a1.584 1.584 0 1 1-2.65-1.738c.48-.732 1.029-.274 1.76.206.731.48 1.37.8.89 1.532Z" />
			<path
				fill="#292F33"
				d="M18.653 16.748a.398.398 0 0 1-.05-.003c-2.985-.436-4.197-2.714-4.247-2.811a.333.333 0 0 1 .592-.307c.011.02 1.115 2.072 3.753 2.458a.334.334 0 0 1-.048.663Z" />
	</symbol>
	<symbol
		id="icons-solid"
		viewBox="0 0 24 24"
		fill="inherit"
		stroke="none">
			<path d="m12.856 14.837-1.84.001-.312-.555a1.067 1.067 0 0 0-1.001-.695H6.899c-.444 0-.844.275-1 .695l-.274.556H3.75a1.07 1.07 0 0 0-1.073 1.069v5.363a1.07 1.07 0 0 0 1.07 1.073h9.109c.59 0 1.069-.478 1.069-1.073l.002-5.364c0-.59-.48-1.07-1.07-1.07Zm-4.554 5.754A2.03 2.03 0 0 1 6.27 18.56a2.03 2.03 0 0 1 2.03-2.031 2.03 2.03 0 0 1 2.032 2.03 2.028 2.028 0 0 1-2.031 2.032Zm-1.07-9.68a.61.61 0 0 0 .443.186c.166 0 .33-.06.44-.186l3.745-3.898a2.798 2.798 0 0 0-.19-4.059c-1.07-.913-2.661-.747-3.643.269l-.385.395-.352-.396c-.981-1.016-2.573-1.182-3.643-.269-1.225 1.045-1.289 2.925-.195 4.059l3.78 3.9Zm14.117-8.553-5.805.89c-.571.087-.996.614-.996 1.24v4.167a3.351 3.351 0 0 0-.625-.066c-1.382 0-2.465.84-2.465 1.876 0 1.035 1.118 1.876 2.465 1.876 1.377 0 2.49-.836 2.5-1.867l.004-4.239 4.375-.669-.002 1.84a3.35 3.35 0 0 0-.625-.066c-1.381 0-2.464.84-2.464 1.875 0 1.04 1.118 1.84 2.465 1.84 1.377 0 2.49-.838 2.464-1.868v-5.63c.002-.725-.592-1.306-1.291-1.199Zm.703 14.362h-2.177l1.502-3.504a.625.625 0 0 0-.987-.716l-5 4.375a.624.624 0 0 0 .412 1.095h2.176l-1.501 3.504a.625.625 0 0 0 .207.751c.11.046.239.12.368.12a.623.623 0 0 0 .411-.154l5-4.375a.624.624 0 0 0-.411-1.096Z"/>
	</symbol>
	<symbol
		id="youtube-solid"
		viewBox="0 0 24 24"
		fill="inherit"
		stroke="none">
			<path d="m10 15 5.19-3L10 9v6Zm11.56-7.83c.13.47.22 1.1.28 1.9.07.8.1 1.49.1 2.09L22 12c0 2.19-.16 3.8-.44 4.83-.25.9-.83 1.48-1.73 1.73-.47.13-1.33.22-2.65.28-1.3.07-2.49.1-3.59.1L12 19c-4.19 0-6.8-.16-7.83-.44-.9-.25-1.48-.83-1.73-1.73-.13-.47-.22-1.1-.28-1.9-.07-.8-.1-1.49-.1-2.09L2 12c0-2.19.16-3.8.44-4.83.25-.9.83-1.48 1.73-1.73.47-.13 1.33-.22 2.65-.28 1.3-.07 2.49-.1 3.59-.1L12 5c4.19 0 6.8.16 7.83.44.9.25 1.48.83 1.73 1.73Z"/>
	</symbol>
	<symbol
		id="link-outline"
		viewBox="0 0 24 24"
		fill="inherit"
		stroke="none">
			<path d="M4.462 20.018a4.984 4.984 0 0 0 3.535 1.462 4.987 4.987 0 0 0 3.536-1.462l2.828-2.829-1.414-1.414-2.828 2.829a3.007 3.007 0 0 1-4.243 0 3.005 3.005 0 0 1 0-4.243l2.829-2.828-1.414-1.414-2.83 2.828a5.006 5.006 0 0 0 0 7.071Zm15.556-8.485a5.008 5.008 0 0 0 0-7.071 5.006 5.006 0 0 0-7.071 0l-2.828 2.829 1.414 1.414 2.828-2.83a3.007 3.007 0 0 1 4.243 0 3.005 3.005 0 0 1 0 4.244l-2.829 2.828 1.414 1.414 2.829-2.828Z"/>
			<path d="M8.704 17.19 7.29 15.776l8.487-8.486 1.414 1.415-8.486 8.485Z"/>
	</symbol>
	<symbol
		id="circle-plus-outline"
		viewBox="0 0 24 24"
		fill="inherit"
		stroke="none">
			<path fill-rule="evenodd" d="M12 3.132a8.868 8.868 0 1 0 0 17.736 8.868 8.868 0 0 0 0-17.736ZM2 12C2 6.477 6.477 2 12 2s10 4.477 10 10-4.477 10-10 10S2 17.523 2 12Z" clip-rule="evenodd"/>
			<path fill-rule="evenodd" d="M7.082 12c0-.313.254-.566.566-.566h8.704a.566.566 0 0 1 0 1.132H7.648A.566.566 0 0 1 7.082 12Z" clip-rule="evenodd"/>
			<path fill-rule="evenodd" d="M12 7.082c.313 0 .567.253.567.566v8.704a.566.566 0 0 1-1.133 0V7.648c0-.313.254-.566.567-.566Z" clip-rule="evenodd"/>
	</symbol>
	<symbol
		id="plus-outline"
		viewBox="0 0 24 24"
		fill="inherit"
		stroke="none">
			<path fill="inherit" d="M12 4a.88.88 0 0 1 .88.88v6.24h6.24a.88.88 0 1 1 0 1.76h-6.24v6.24a.88.88 0 1 1-1.759 0v-6.24H4.879a.88.88 0 1 1 0-1.76h6.242V4.88a.88.88 0 0 1 .88-.88Z"/>
	</symbol>
	<symbol
		id="share-outline"
		viewBox="0 0 24 24"
		fill="inherit"
		stroke="none">
			<path fill-rule="evenodd" d="M14.85 6a3.15 3.15 0 1 1 .607 1.859l-6.446 3.223a3.114 3.114 0 0 1 0 1.836l6.446 3.224A3.15 3.15 0 1 1 14.85 18c0-.32.05-.628.14-.919l-6.447-3.223a3.15 3.15 0 1 1 0-3.717l6.446-3.223c-.089-.29-.139-.597-.139-.918ZM18 3.9a2.1 2.1 0 1 0 0 4.2 2.1 2.1 0 0 0 0-4.2Zm-12 6a2.1 2.1 0 1 0 0 4.2 2.1 2.1 0 0 0 0-4.2Zm12 6a2.1 2.1 0 1 0 0 4.2 2.1 2.1 0 0 0 0-4.2Z" clip-rule="evenodd"/>
	</symbol>
	<symbol
		id="image-solid"
		viewBox="0 0 24 24"
		fill="inherit"
		stroke="none">
			<path d="M4.629 22.324H19.37A2.628 2.628 0 0 0 22 19.695V4.953a2.629 2.629 0 0 0-2.629-2.629H4.63A2.629 2.629 0 0 0 2 4.953v14.742a2.628 2.628 0 0 0 2.629 2.63ZM7 5.181a2.143 2.143 0 1 1 0 4.286 2.143 2.143 0 0 1 0-4.286ZM3.907 17.588l7.207-7.232a1.253 1.253 0 0 1 1.786 0l3.136 3.147a.935.935 0 0 1 0 1.325l-1.682 1.682a.714.714 0 0 0 .092 1.096.746.746 0 0 0 .954-.107l2.314-2.318 2.254-2.25a.356.356 0 0 1 .614.254v6.01a1.669 1.669 0 0 1-1.664 1.7H5.628a2.2 2.2 0 0 1-2.2-2.142c.018-.433.188-.845.48-1.165Z"/>
	</symbol>
	<symbol
		id="like-outline"
		viewBox="0 0 24 24"
		fill="inherit"
		stroke="inherit">
			<path stroke-width="1" d="M4.2 10.51a.299.299 0 0 0-.182.178L4 10.734v8.533l.019.046a.296.296 0 0 0 .196.18l.006.001.018.001h.002l.07.002.237.003a89.786 89.786 0 0 0 1.705-.005H6.273l.006-.001a.296.296 0 0 0 .199-.186l.02-.05.002-4.236v-3.715c-.001-.27-.003-.41-.005-.484a.412.412 0 0 0-.006-.09.33.33 0 0 0-.165-.213l-.035-.017m-2.09.006.015-.001.044-.003.177-.003h1.854m-2.09.007 2.09-.006m7.545-6.499a.737.737 0 0 0-.33.15c-.121.1-.204.222-.303.455-.387.916-.903 1.79-1.604 2.716-.652.863-1.415 1.7-2.34 2.563-.213.2-.55.496-.812.715-.2.167-.261.227-.307.3-.046.07-.094.177-.117.256-.023.08-.021 3.663-.021 3.663v2.669l.005.983a.337.337 0 0 0 .185.25c.037.018.06.028.103.036.045.008.11.014.227.023a6.784 6.784 0 0 1 2.407.647c.425.2.524.233.853.301.796.164 2.087.272 3.254.272 1.267 0 2.276-.12 2.99-.352.706-.23 1.106-.563 1.22-.99a.506.506 0 0 0 .018-.092c.004-.033.004-.074.005-.149 0-.127-.003-.178-.015-.232a2.011 2.011 0 0 0-.137-.392.983.983 0 0 1-.06-.15.475.475 0 0 1 .055-.372.675.675 0 0 1 .064-.076c.03-.032.067-.07.105-.106.207-.2.32-.355.4-.546.178-.426.088-.911-.272-1.394a.578.578 0 0 1-.12-.205.32.32 0 0 1 0-.196.324.324 0 0 1 .064-.121.973.973 0 0 1 .139-.129c.12-.097.257-.244.332-.357.082-.121.147-.282.167-.406.02-.175.01-.26-.01-.405-.06-.272-.218-.55-.49-.85a.58.58 0 0 1-.144-.554 2.1 2.1 0 0 1 .09-.215 2.2 2.2 0 0 0 .157-.462c.02-.097.023-.126.023-.275 0-.091-.002-.153-.011-.207a.753.753 0 0 0-.049-.164c-.106-.268-.343-.487-.714-.652-.372-.166-.875-.274-1.504-.322a13.812 13.812 0 0 0-1.884.013 21.61 21.61 0 0 0-1.191.12 1.91 1.91 0 0 1-.172.018.187.187 0 0 1-.123-.038c-.035-.03-.043-.074-.031-.117a.27.27 0 0 1 .056-.092c.03-.039.078-.091.15-.17.395-.426.724-.897.955-1.368.179-.365.281-.663.353-1.022.052-.26.062-.368.062-.661 0-.258-.005-.32-.036-.512-.124-.758-.556-1.421-1.088-1.688a.958.958 0 0 0-.554-.11Z"/>
	</symbol>
	<symbol
		id="dislike-outline"
		viewBox="0 0 24 24"
		fill="inherit"
		stroke="inherit">
			<path stroke-width="1.00018" d="M19.8 13.493a.299.299 0 0 0 .182-.178l.018-.047V4.736l-.019-.046a.296.296 0 0 0-.196-.18l-.006-.001-.018-.001h-.002a90.352 90.352 0 0 0-2.012 0H17.727l-.006.001a.296.296 0 0 0-.199.186l-.02.05-.002 4.236v3.715c.001.27.003.41.005.484a.42.42 0 0 0 .006.09.33.33 0 0 0 .165.213l.035.017m2.09-.007-.015.002-.044.003a89.706 89.706 0 0 1-1.004.004l-1.027-.002m2.09-.007-2.09.007m-7.545 6.498a.736.736 0 0 0 .33-.149c.121-.1.204-.222.303-.455.387-.916.903-1.79 1.604-2.716.652-.863 1.415-1.7 2.34-2.564.213-.2.55-.495.812-.714.2-.167.261-.228.308-.3a1.12 1.12 0 0 0 .116-.257c.023-.08.021-3.662.021-3.662V6.512l-.005-.983a.337.337 0 0 0-.185-.25.344.344 0 0 0-.103-.036 2.522 2.522 0 0 0-.227-.023 6.781 6.781 0 0 1-2.407-.648c-.425-.198-.524-.233-.853-.3C11.425 4.108 10.133 4 8.966 4c-1.267 0-2.276.12-2.99.351-.706.23-1.106.564-1.22.99a.502.502 0 0 0-.018.093 1.77 1.77 0 0 0-.005.149c0 .127.003.178.015.232.023.11.079.268.137.392.03.064.05.108.06.15a.476.476 0 0 1-.055.372.663.663 0 0 1-.064.076c-.03.032-.067.07-.105.106-.207.2-.32.355-.4.546-.178.426-.088.911.272 1.394.079.105.1.139.12.205a.32.32 0 0 1 0 .196.325.325 0 0 1-.064.121.966.966 0 0 1-.139.129 1.86 1.86 0 0 0-.332.357 1.116 1.116 0 0 0-.167.406c-.02.175-.01.26.01.405.06.271.218.55.49.85a.58.58 0 0 1 .144.554c-.015.049-.043.112-.09.215a2.204 2.204 0 0 0-.157.461c-.02.098-.023.127-.023.276 0 .091.003.153.011.207.009.053.024.1.049.164.106.268.343.487.714.652.372.165.875.274 1.504.322.515.04 1.217.034 1.884-.013.368-.026.852-.075 1.191-.12.07-.01.148-.018.172-.018.048 0 .092.01.123.038.035.03.043.074.031.117a.271.271 0 0 1-.056.092c-.03.038-.078.091-.15.17a5.817 5.817 0 0 0-.955 1.368 3.92 3.92 0 0 0-.353 1.021c-.052.261-.062.368-.062.662 0 .258.004.32.036.512.124.758.556 1.421 1.088 1.688a.957.957 0 0 0 .554.11Z"/>
	</symbol>
	<symbol
		id="trash-solid"
		viewBox="0 0 24 24"
		fill="inherit"
		stroke="none">
			<path fill-rule="evenodd" d="M8.23 2.41A.57.57 0 0 1 8.78 2h6.43a.57.57 0 0 1 .55.43l.2.82h4.48a.56.56 0 0 1 .56.56v1.48a.56.56 0 0 1-.56.55H3.56A.56.56 0 0 1 3 5.29V3.81a.56.56 0 0 1 .56-.56H8l.23-.84Zm-3.92 4.4h15.42v13.8a1.4 1.4 0 0 1-1.4 1.39H5.72a1.401 1.401 0 0 1-1.41-1.39V6.81ZM7.5 10a.66.66 0 0 1 1.31 0v8.85a.66.66 0 0 1-1.31 0V10Zm3.89 0a.66.66 0 0 1 1.31 0v8.85a.66.66 0 0 1-1.31 0V10Zm4.5-.65a.66.66 0 0 0-.66.65v8.85a.66.66 0 1 0 1.32 0V10a.658.658 0 0 0-.66-.69v.04Z" clip-rule="evenodd"/>
	</symbol>
	<symbol
		id="pin-solid"
		viewBox="0 0 24 24"
		fill="inherit"
		stroke="none">
			<path d="M14.416 1a.788.788 0 0 1 .558.23l7.795 7.796a.787.787 0 0 1 0 1.113c-.755.756-1.688.927-2.367.927-.278 0-.527-.029-.724-.062l-4.936 4.936c.13.524.214 1.057.252 1.595.073 1.106-.05 2.657-1.134 3.74a.787.787 0 0 1-1.113 0L8.29 16.823 3.28 21.834c-.307.307-1.92 1.42-2.227 1.113-.307-.307.806-1.921 1.114-2.227l5.01-5.011-4.453-4.456a.787.787 0 0 1 0-1.114c1.084-1.083 2.635-1.208 3.74-1.134a9.326 9.326 0 0 1 1.596.252l4.936-4.934a4.363 4.363 0 0 1-.063-.726c0-.677.17-1.61.927-2.367a.788.788 0 0 1 .556-.23Z"/>
	</symbol>
	<symbol
		id="blocked-outline"
		viewBox="0 0 24 24"
		fill="none"
		stroke="inherit">
			<circle cx="11.9999" cy="12.0001" r="9.27649" stroke-linecap="round" stroke-linejoin="round" stroke-width="2"/>
			<path stroke-linecap="round" stroke-linejoin="round" stroke-width="2" d="M18.59 5.41 5.41 18.59"/>
	</symbol>
	<symbol
		id="company-achievement-active-events"
		viewBox="0 0 24 24"
		fill="inherit"
		stroke="none">
			<path fill-rule="evenodd" d="M12 24c6.627 0 12-5.373 12-12S18.627 0 12 0 0 5.373 0 12s5.373 12 12 12Zm5-18.969v1.25h1.25c.688 0 1.25.563 1.25 1.25V17.5c0 .687-.563 1.25-1.25 1.25H5.75c-.688 0-1.25-.563-1.25-1.25V7.53c0-.687.563-1.25 1.25-1.25H7v-1.25c0-.687.563-1.25 1.25-1.25.688 0 1.25.563 1.25 1.25v1.25h5v-1.25c0-.687.563-1.25 1.25-1.25.688 0 1.25.563 1.25 1.25ZM9.05 16.25a.45.45 0 0 0 .45-.45v-1.6a.45.45 0 0 0-.45-.45h-1.6a.45.45 0 0 0-.45.45v1.6c0 .248.201.45.45.45h1.6Zm3.75 0a.45.45 0 0 0 .45-.45v-1.6a.45.45 0 0 0-.45-.45h-1.6a.45.45 0 0 0-.45.45v1.6c0 .248.201.45.45.45h1.6Zm.075-3.75a.375.375 0 0 0 .375-.375v-1.75a.375.375 0 0 0-.375-.375h-1.75a.375.375 0 0 0-.375.375v1.75c0 .207.168.375.375.375h1.75Zm3.675 3.75a.45.45 0 0 0 .45-.45v-1.6a.45.45 0 0 0-.45-.45h-1.6a.45.45 0 0 0-.45.45v1.6c0 .248.201.45.45.45h1.6Zm0-3.75a.45.45 0 0 0 .45-.45v-1.6a.45.45 0 0 0-.45-.45h-1.6a.45.45 0 0 0-.45.45v1.6c0 .248.201.45.45.45h1.6Z" clip-rule="evenodd"/>
	</symbol>
	<symbol
		id="company-achievement-active-vacancies"
		viewBox="0 0 24 24"
		fill="inherit"
		stroke="none">
			<path fill-rule="evenodd" d="M12 24c6.627 0 12-5.373 12-12S18.627 0 12 0 0 5.373 0 12s5.373 12 12 12Zm3.6-17.1h3a.9.9 0 0 1 .9.9v4.3a39 39 0 0 1-3 1.098V12.9a.6.6 0 0 0-.6-.6h-.6a.6.6 0 0 0-.6.6v.806c-.882.234-1.788.366-2.7.394a12.07 12.07 0 0 1-2.7-.384V12.9a.6.6 0 0 0-.6-.6h-.6a.6.6 0 0 0-.6.6v.31a36.571 36.571 0 0 1-3-1.108V7.8a.9.9 0 0 1 .9-.9h3V6a1.502 1.502 0 0 1 1.5-1.5h4.2A1.502 1.502 0 0 1 15.6 6v.9ZM9 6v.9h6V6a.901.901 0 0 0-.9-.9H9.9A.901.901 0 0 0 9 6Zm10.5 6.75c-.581.238-1.703.677-3 1.081v.869a.6.6 0 0 1-.6.6h-.6a.6.6 0 0 1-.6-.6v-.375c-.883.225-1.789.35-2.7.375a12.415 12.415 0 0 1-2.7-.365v.365a.6.6 0 0 1-.6.6h-.6a.6.6 0 0 1-.6-.6v-.856a35.786 35.786 0 0 1-3-1.09V17.4a.9.9 0 0 0 .9.9h13.2a.9.9 0 0 0 .9-.9v-4.65Z" clip-rule="evenodd"/>
	</symbol>
	<symbol
		id="company-achievement-bookmarks-posts"
		viewBox="0 0 24 24"
		fill="inherit"
		stroke="none">
			<path  fill-rule="evenodd" d="M12 24c6.627 0 12-5.373 12-12S18.627 0 12 0 0 5.373 0 12s5.373 12 12 12ZM7.538 5.529c.344-.34.81-.529 1.296-.529h6.332c.485 0 .952.19 1.296.529.344.339.538.799.538 1.28l-.001 11.773a.42.42 0 0 1-.261.381.432.432 0 0 1-.425-.046L12 15.65l-4.314 3.267a.43.43 0 0 1-.425.046.426.426 0 0 1-.261-.38V6.807c0-.48.194-.94.538-1.28Z" clip-rule="evenodd"/>
	</symbol>
	<symbol
		id="company-achievement-comments-posts"
		viewBox="0 0 24 24"
		fill="inherit"
		stroke="none">
			<path fill-rule="evenodd" d="M12 24c6.627 0 12-5.373 12-12S18.627 0 12 0 0 5.373 0 12s5.373 12 12 12Zm5.527-18H6.414A1.916 1.916 0 0 0 4.5 7.914v7.028a1.899 1.899 0 0 0 1.575 1.881v2.374a.302.302 0 0 0 .516.213l2.554-2.554h8.382a1.916 1.916 0 0 0 1.913-1.914V7.914A1.916 1.916 0 0 0 17.527 6Zm-10.04 5.353c0 .207.167.375.374.375h8.444a.374.374 0 0 0 .375-.375.375.375 0 0 0-.375-.375H7.86a.375.375 0 0 0-.375.375Zm-.18 2.144c0 .207.167.375.375.375.03.011.062.018.095.02h5.427a.303.303 0 0 0 .096-.02h2.825a.375.375 0 0 0 0-.75H7.682a.375.375 0 0 0-.375.375ZM7.682 9a.375.375 0 0 0 0 .75h8.443a.375.375 0 1 0 0-.75H7.682Z" clip-rule="evenodd"/>
	</symbol>
	<symbol
		id="company-achievement-new-posts-month"
		viewBox="0 0 24 24"
		fill="inherit"
		stroke="none">
			<path fill-rule="evenodd" d="M12 24c6.627 0 12-5.373 12-12S18.627 0 12 0 0 5.373 0 12s5.373 12 12 12Zm4.293-5.847a6.468 6.468 0 0 0 1.895-4.574c0-1.751-.528-3.439-1.61-5.161-.915-1.463-2.103-2.721-3.137-3.755a.562.562 0 0 0-.492-.155.555.555 0 0 0-.415.31l-2.172 4.556-2.264-1.512a.57.57 0 0 0-.625 0 .562.562 0 0 0-.156.155c-1.37 2.067-2.067 3.937-2.067 5.562a6.469 6.469 0 0 0 11.043 4.574Z" clip-rule="evenodd"/>
	</symbol>
	<symbol
		id="company-achievement-views-posts"
		viewBox="0 0 24 24"
		fill="inherit"
		stroke="none">
			<path fill-rule="evenodd" d="M12 24c6.627 0 12-5.373 12-12S18.627 0 12 0 0 5.373 0 12s5.373 12 12 12ZM5.941 9.313c1.254-1.253 3.218-2.518 6.02-2.518 2.8 0 4.765 1.265 6.018 2.518a9.951 9.951 0 0 1 1.372 1.719 8.373 8.373 0 0 1 .414.736l.021.047.007.013.002.004v.002l-.422.188.422.188v.002l-.002.005-.006.013a3.536 3.536 0 0 1-.106.212 8.37 8.37 0 0 1-.33.571 9.948 9.948 0 0 1-1.372 1.719c-1.253 1.253-3.217 2.518-6.019 2.518-2.8 0-4.765-1.265-6.019-2.518a9.948 9.948 0 0 1-1.371-1.719 8.38 8.38 0 0 1-.436-.783l-.006-.013-.002-.005s-.001-.002.42-.19l-.421.188a.463.463 0 0 1 0-.376l.422.188-.422-.188.001-.002.002-.004.006-.013a3.727 3.727 0 0 1 .105-.212c.074-.14.183-.337.33-.571a9.951 9.951 0 0 1 1.372-1.72Zm13.854 2.897a.463.463 0 0 0 0-.375l-.422.187.422.188ZM11.96 9.837a2.185 2.185 0 1 0 0 4.37 2.185 2.185 0 0 0 0-4.37Z" clip-rule="evenodd"/>
	</symbol>
	<symbol
		id="rating-outline"
		viewBox="0 0 24 24"
		fill="inherit"
		stroke="none">
			<path fill-rule="evenodd" d="M17.5 4c.183 0 .349.11.421.278l1.272 2.966 3.405.426a.458.458 0 0 1 .268.78l-2.133 2.132.43 3.444a.458.458 0 0 1-.66.467l-2.75-1.375a.458.458 0 0 1 .41-.82l1.984.992-.352-2.816a.458.458 0 0 1 .13-.381l1.63-1.63-2.737-.342a.458.458 0 0 1-.364-.274L17.5 5.622l-.954 2.225a.458.458 0 0 1-.842-.36l1.375-3.21A.458.458 0 0 1 17.5 4Zm-4.586.458a.458.458 0 0 1 .421.273l1.727 3.884 3.864.43a.458.458 0 0 1 .273.78l-2.594 2.593.434 3.906a.458.458 0 0 1-.66.46l-2.75-1.374a.458.458 0 0 1 .41-.82l1.996.998-.366-3.287a.458.458 0 0 1 .132-.375l2.076-2.076-3.178-.353a.459.459 0 0 1-.368-.27l-1.407-3.165-.961 2.244a.458.458 0 1 1-.843-.362l1.375-3.208a.458.458 0 0 1 .419-.278Zm-4.58.917c.166 0 .32.09.4.236l2.189 3.94 4.375.874a.458.458 0 0 1 .234.774l-3.054 3.055.436 4.367a.458.458 0 0 1-.642.465l-3.939-1.751-3.939 1.75a.458.458 0 0 1-.642-.464l.459-4.583a.458.458 0 0 1 .912.09l-.38 3.8 3.404-1.514a.458.458 0 0 1 .372 0l3.405 1.513-.38-3.798a.459.459 0 0 1 .132-.37l2.603-2.603-3.744-.748a.458.458 0 0 1-.31-.227L8.332 6.777l-1.89 3.404a.458.458 0 0 1-.311.227l-3.744.748 1.228 1.228a.458.458 0 0 1-.648.648L1.134 11.2a.458.458 0 0 1 .234-.774l4.376-.875 2.189-3.94a.458.458 0 0 1 .4-.235Z" clip-rule="evenodd"/>
	</symbol>
	<symbol
		id="website-outline"
		viewBox="0 0 24 24"
		fill="inherit"
		stroke="none">
			<path d="M12 2C6.477 2 2 6.477 2 12s4.477 10 10 10 10-4.477 10-10S17.523 2 12 2Zm.313 18.188a.462.462 0 0 1-.312.124c-.08 0-.2-.022-.316-.126a10.834 10.834 0 0 1-3.033-4.677 13.742 13.742 0 0 1 6.704-.023 10.836 10.836 0 0 1-3.043 4.702Zm-4.038-6.17c-.12-.66-.185-1.335-.185-2.018 0-.683.065-1.358.185-2.018a15.283 15.283 0 0 0 7.454.024c.118.653.182 1.32.182 1.994 0 .675-.064 1.341-.181 1.994a15.289 15.289 0 0 0-7.455.024Zm3.412-10.206A.46.46 0 0 1 12 3.688c.08 0 .2.022.316.126a10.835 10.835 0 0 1 3.04 4.7c-2.2.545-4.507.538-6.703-.023a10.833 10.833 0 0 1 3.035-4.68Zm5.523 5.745a15.156 15.156 0 0 0 2.453-1.139A8.405 8.405 0 0 1 20.462 12a8.41 8.41 0 0 1-.798 3.582c-.79-.456-1.611-.836-2.454-1.139.155-.796.239-1.614.239-2.443 0-.83-.084-1.646-.24-2.443Zm1.676-2.466c-.665.383-1.353.707-2.06.97a12.477 12.477 0 0 0-2.272-4.128 8.495 8.495 0 0 1 4.332 3.158Zm-9.44-3.158a12.47 12.47 0 0 0-2.26 4.093c-.7-.266-1.384-.591-2.042-.977a8.494 8.494 0 0 1 4.303-3.116ZM4.358 8.372c.785.46 1.601.844 2.44 1.151-.16.808-.246 1.636-.246 2.477s.086 1.67.245 2.477c-.838.307-1.654.691-2.439 1.151A8.41 8.41 0 0 1 3.538 12a8.41 8.41 0 0 1 .82-3.628Zm.787 8.578c.658-.385 1.341-.71 2.042-.976a12.472 12.472 0 0 0 2.26 4.093 8.492 8.492 0 0 1-4.302-3.117Zm9.41 3.117a12.48 12.48 0 0 0 2.273-4.128c.706.262 1.394.587 2.058.97a8.494 8.494 0 0 1-4.331 3.158Z"/>
	</symbol>
	<symbol
		id="mail-outline"
		viewBox="0 0 24 24"
		fill="inherit"
		stroke="none">
			<path d="m21.791 6.088-.793-.794-7.349 7.349c-.918.918-2.463.918-3.382 0L2.918 5.336l-.793.793 5.47 5.47-5.47 5.47.793.793 5.47-5.47 1.086 1.086a3.481 3.481 0 0 0 2.463 1.044 3.48 3.48 0 0 0 2.464-1.044l1.085-1.086 5.47 5.47.793-.793-5.47-5.47 5.512-5.511Z"/>
			<path d="M20.246 19.282H3.754c-.96 0-1.754-.794-1.754-1.754V5.754C2 4.794 2.793 4 3.754 4h16.492C21.206 4 22 4.793 22 5.754v11.774c0 .96-.793 1.754-1.754 1.754ZM3.712 5.127a.57.57 0 0 0-.585.585v11.774c0 .334.25.585.585.585h16.492a.57.57 0 0 0 .585-.585V5.712a.57.57 0 0 0-.585-.585H3.712Z"/>
			<path fill-rule="evenodd" d="M3.754 4.1c-.906 0-1.654.748-1.654 1.654v.26l.818-.82.189.188a.671.671 0 0 1 .605-.355h16.492c.258 0 .474.13.59.329l.204-.203.902.902v-.301c0-.906-.749-1.654-1.654-1.654H3.754ZM21.9 6.12l-1.011 1.011v8.936l1.002 1.002-.935.934-.161-.16a.672.672 0 0 1-.59.328H3.712a.671.671 0 0 1-.605-.355l-.189.188-.818-.819v.343c0 .905.748 1.654 1.654 1.654h16.492c.905 0 1.654-.749 1.654-1.654V6.12ZM2.1 16.953l.927-.928V7.173L2.1 6.245v10.708Zm1.127-9.58v8.452L7.453 11.6 3.227 7.373Zm0 8.735 4.51-4.509-4.51-4.509V5.784l6.97 6.93c.957.957 2.565.957 3.523 0l6.969-6.97v1.304l-4.55 4.551 4.55 4.55v1.305l-5.203-5.203-1.156 1.156a3.38 3.38 0 0 1-2.393 1.015 3.38 3.38 0 0 1-2.392-1.015l-1.157-1.156-5.16 5.16v-1.303Zm-.2.2-.76.76.651.653.118-.118a.742.742 0 0 1-.009-.117v-1.178Zm.23 1.356a.469.469 0 0 0 .455.307h16.492a.47.47 0 0 0 .442-.277l-5.16-5.16-1.015 1.015a3.58 3.58 0 0 1-2.534 1.073 3.58 3.58 0 0 1-2.534-1.073l-1.015-1.015-5.13 5.13Zm17.617-.026.082.083.652-.652-.719-.72v1.137a.738.738 0 0 1-.015.152Zm-.185-1.771V7.331L16.421 11.6l4.268 4.268Zm.2-9.019.76-.76-.651-.652-.125.124c.01.049.016.1.016.152v1.136Zm-.242-1.344a.47.47 0 0 0-.442-.277H3.712a.469.469 0 0 0-.454.306l7.08 7.039c.88.88 2.36.88 3.24 0l7.069-7.068Zm-17.61.09a.743.743 0 0 0-.01.118V6.89l-.76-.76.652-.653.117.117Zm-1.137.16c0-1.016.838-1.854 1.854-1.854h16.492c1.016 0 1.854.838 1.854 1.854v11.774a1.864 1.864 0 0 1-1.854 1.854H3.754A1.864 1.864 0 0 1 1.9 17.528V5.754Z" clip-rule="evenodd"/>
	</symbol>
	<symbol
		id="mail-solid"
		viewBox="0 0 24 24"
		fill="inherit"
		stroke="none">
			<path fill="inherit" d="M20 4H4c-1.1 0-1.99.9-1.99 2L2 18c0 1.1.9 2 2 2h16c1.1 0 2-.9 2-2V6c0-1.1-.9-2-2-2Zm-.4 4.25-7.07 4.42c-.32.2-.74.2-1.06 0L4.4 8.25a.858.858 0 0 1-.305-1.192A.858.858 0 0 1 5.3 6.81L12 11l6.7-4.19a.858.858 0 0 1 1.205.248.858.858 0 0 1-.305 1.192Z"/>
	</symbol>
	<symbol
		id="cv-outline"
		viewBox="0 0 24 24"
		fill="inherit"
		stroke="none">
			<path d="M4.772 15.431V5.886A2.892 2.892 0 0 1 7.656 3H17.73a2.892 2.892 0 0 1 2.885 2.885v10.577a2.892 2.892 0 0 1-2.885 2.884H8.953v1.204a.45.45 0 0 1-.45.45H3.835a.45.45 0 0 1-.45-.45v-4.668a.45.45 0 0 1 .45-.45h.937Zm-.125 3.077c-.317-.497.44-.978.756-.482l.328.514 1.216-1.712c.342-.48 1.074.04.732.52l-1.602 2.255a.449.449 0 0 1-.744-.02l-.686-1.075Zm15.068-3.526h-8.649c-.592 0-.592-.9 0-.9h8.649V5.884c0-1.09-.894-1.985-1.985-1.985H7.656c-1.09 0-1.984.894-1.984 1.985v9.546h2.831a.45.45 0 0 1 .45.45v2.565h8.777c1.09 0 1.985-.894 1.985-1.984v-1.48Zm-11.732-2.99c0 .592-.9.592-.9 0 0-1.298.723-2.48 1.869-3.079a2.21 2.21 0 0 1 1.602-3.733 2.21 2.21 0 0 1 1.602 3.734 3.472 3.472 0 0 1 1.868 3.078c0 .592-.9.592-.9 0a2.569 2.569 0 0 0-1.917-2.488c-.21.065-.434.1-.653.1-.219 0-.444-.035-.653-.1a2.57 2.57 0 0 0-1.918 2.488Zm2.57-3.288c.734 0 1.313-.585 1.313-1.312a1.312 1.312 0 1 0-2.624 0c0 .746.596 1.312 1.312 1.312Zm4.554 3.76c-.591 0-.591-.9 0-.9h2.747c.591 0 .591.9 0 .9h-2.747Zm0-2.654c-.591 0-.591-.9 0-.9h2.747c.591 0 .591.9 0 .9h-2.747Zm0-2.654c-.591 0-.591-.9 0-.9h2.747c.591 0 .591.9 0 .9h-2.747Zm-7.054 9.176H4.285v3.767h3.768v-3.767Z"/>
	</symbol>
	<symbol
		id="map-point-outline"
		viewBox="0 0 24 24"
		fill="inherit"
		stroke="none">
			<path fill-rule="evenodd" d="M12.043 21S5 17.315 5 10.043a7.044 7.044 0 0 1 14.087 0c0 7.272-7.043 10.957-7.043 10.957Zm0-17.217a6.268 6.268 0 0 0-6.26 6.26c0 5.775 4.876 9.197 6.262 10.052 1.386-.852 6.26-4.258 6.26-10.051a6.268 6.268 0 0 0-6.261-6.261Zm0 9.782a3.521 3.521 0 1 1 0-7.043 3.521 3.521 0 0 1 0 7.043Zm0-6.26a2.74 2.74 0 1 0 0 5.478 2.74 2.74 0 0 0 0-5.479Z" clip-rule="evenodd"/>
	</symbol>
	<symbol
		id="money-outline"
		viewBox="0 0 24 24"
		fill="inherit"
		stroke="none">
			<path fill-rule="evenodd" d="M22 18.99c0 1.2-.973 2.173-2.174 2.173H4.174C2.973 21.163 2 20.19 2 18.99V6.381c0-.96.779-1.74 1.74-1.74h8.77l3.52-1.275a.43.43 0 0 1 .552.256l.37 1.02h1.57c.96 0 1.739.778 1.739 1.739v.87c.96 0 1.739.778 1.739 1.738v10ZM3.74 5.51a.87.87 0 0 0 0 1.74H5.318c.006-.003.01-.008.015-.01l4.775-1.73h-6.37Zm12.642.079-.462-1.272-.892.324h.001l-2.397.87h-.005l-4.8 1.738h9.158l-.603-1.66Zm3.01.79a.87.87 0 0 0-.87-.869h-1.254l.632 1.74h1.491v-.87Zm.869 1.74H3.739a1.72 1.72 0 0 1-.87-.242V18.99c0 .72.585 1.305 1.305 1.305h15.652c.72 0 1.304-.584 1.304-1.305v-3.043h-1.739a1.74 1.74 0 0 1 0-3.478h1.74V8.989a.87.87 0 0 0-.87-.87Zm.87 6.956v-1.739h-1.74a.87.87 0 0 0 0 1.74h1.74Zm-1.74-1.304h.87v.87h-.87v-.87Z" clip-rule="evenodd"/>
	</symbol>
	<symbol
		id="office-outline"
		viewBox="0 0 24 24"
		fill="inherit"
		stroke="none">
			<path fill-rule="evenodd" d="M11.824 3.009c-.312.03-.657.159-.905.337-.106.077-8.45 7.678-8.525 7.767-.188.223-.317.491-.373.776-.028.139-.028.43 0 .578.063.348.227.66.472.904.189.187.37.3.61.38.179.06.272.075.479.082.225.008.376-.011.56-.07l.118-.039.003 1.062.003 1.061v1.678l-.003 1.203c-.004 1.245 0 1.366.044 1.567.07.322.232.628.459.864.28.291.583.459.99.546.095.02.348.02 6.244.02s6.149 0 6.243-.02c.408-.088.711-.255.991-.546.279-.291.45-.667.493-1.085.007-.069.011-1.266.012-3.23v-3.12l.118.038c.182.06.336.079.555.071.104-.003.222-.014.27-.025.225-.05.447-.147.63-.278.13-.092.321-.288.404-.413a1.651 1.651 0 0 0-.132-2.022c-.112-.126-8.376-7.657-8.502-7.748a2.214 2.214 0 0 0-.513-.257 1.843 1.843 0 0 0-.745-.081ZM4.983 14.536l-.003 1.332v1.634l.006 1.283.006 1.283.03.111a1.129 1.129 0 0 0 .788.795l.09.027H18.1l.09-.027c.2-.058.366-.155.504-.298.147-.151.236-.311.29-.518l.025-.101V13.199l-3.222-2.939a2511.704 2511.704 0 0 0-3.314-3.019.688.688 0 0 0-.472-.194.681.681 0 0 0-.444.169L8.24 10.238l-3.254 2.966-.003 1.332Zm7.322-10.768a1.579 1.579 0 0 0-.19-.035.755.755 0 0 0-.247.001 1.172 1.172 0 0 0-.657.306c-.04.038-1.902 1.735-4.137 3.77a670.52 670.52 0 0 0-4.135 3.786c-.08.092-.16.242-.193.365a1.178 1.178 0 0 0 0 .443c.03.116.122.299.196.388a.938.938 0 0 0 .456.293c.056.015.117.02.247.02.15.001.184-.003.258-.026.095-.03.2-.08.273-.13A713.15 713.15 0 0 0 7.64 9.803a787.98 787.98 0 0 1 3.506-3.186 1.402 1.402 0 0 1 1.67-.03c.04.029 1.617 1.461 3.505 3.183 2.032 1.853 3.468 3.154 3.52 3.19a.859.859 0 0 0 .503.153c.14 0 .224-.015.34-.06a.933.933 0 0 0 .563-.636c.032-.123.035-.312.006-.432a1.007 1.007 0 0 0-.204-.396c-.076-.083-8.227-7.522-8.355-7.625a1.313 1.313 0 0 0-.39-.195Z" clip-rule="evenodd"/>
			<path fill-rule="evenodd" d="M10.872 12.25c.292-.193.623-.308.961-.334l.145-.01c.013-.002.09.003.172.01.5.04.913.227 1.255.568.171.17.274.315.367.517l.057.122h.438c.46 0 .586.009.736.048.428.114.78.444.914.86.01.028.018.05.024.074.043.145.04.303.04 2.01 0 1.713.003 1.868-.04 2.01-.006.022-.014.045-.024.074-.136.415-.483.74-.916.86l-.113.031H9.111L9 19.06a1.378 1.378 0 0 1-.595-.344 1.316 1.316 0 0 1-.366-.68c-.019-.079-.02-.222-.02-1.915 0-1.713-.002-1.871.04-2.016l.024-.074c.135-.416.494-.753.916-.86.152-.04.279-.047.735-.048h.437l.057-.122a1.67 1.67 0 0 1 .368-.517c.108-.108.186-.174.277-.234Zm2.057.665a1.354 1.354 0 0 0-.601-.323 1.146 1.146 0 0 0-.294-.027 2.798 2.798 0 0 0-.23.001l-.086.017c-.23.044-.475.17-.648.332-.055.05-.17.187-.17.201 0 .004.495.007 1.1.007.604 0 1.099-.003 1.099-.007 0-.014-.115-.15-.17-.201Zm2.261 1.25a.624.624 0 0 0-.416-.304c-.089-.016-5.474-.015-5.56 0a.633.633 0 0 0-.405.305c-.066.125-.071.174-.072.612v.394h6.525v-.394c0-.438-.006-.487-.072-.612Zm-5.987 2.34c-.032-.093-.034-.105-.038-.352l-.004-.256h-.424v.964c0 .639.004.988.013 1.033a.59.59 0 0 0 .328.421l.1.05H14.82l.102-.05a.59.59 0 0 0 .328-.42c.008-.046.012-.395.012-1.034v-.965l-.21.003-.21.004-.007.258c-.007.286-.014.322-.088.466a.731.731 0 0 1-.14.18.722.722 0 0 1-.317.202c-.092.033-.094.033-.38.033-.246 0-.298-.003-.357-.021a.806.806 0 0 1-.558-.56c-.02-.071-.026-.13-.031-.325l-.007-.24h-1.915l-.006.24c-.006.196-.011.254-.032.325a.796.796 0 0 1-.523.548c-.087.03-.106.032-.335.036-.3.006-.388-.008-.54-.083a.8.8 0 0 1-.403-.456Zm1.085-.206c.03-.03.026-.092.023-.23l-.003-.166-.21-.004-.21-.003v.194c0 .174.002.197.021.213.018.016.049.02.19.02.107 0 .162.002.189-.024Zm3.804.003c.016-.018.02-.051.02-.213v-.192h-.428l.004.196c.003.18.005.198.026.213.017.013.063.017.19.017.15 0 .172-.003.188-.021Z" clip-rule="evenodd"/>
	</symbol>
	<symbol
		id="hashtag-outline"
		viewBox="0 0 24 24"
		fill="inherit"
		stroke="none">
			<path fill-rule="evenodd" d="M10.359 4.006c.291.045.49.317.446.608l-.625 4.063h4.662l.65-4.225a.533.533 0 0 1 1.053.162l-.624 4.063h3.546a.533.533 0 1 1 0 1.066h-3.71l-.694 4.514h4.404a.533.533 0 0 1 0 1.066h-4.568l-.65 4.225a.533.533 0 1 1-1.054-.162l.625-4.063H9.158l-.65 4.225a.533.533 0 1 1-1.053-.162l.624-4.063H4.533a.533.533 0 0 1 0-1.066h3.71l.694-4.514H4.533a.533.533 0 0 1 0-1.066h4.568l.65-4.225a.533.533 0 0 1 .608-.446Zm-.343 5.737-.694 4.514h4.662l.694-4.514h-4.662Z" clip-rule="evenodd"/>
	</symbol>
	<symbol
		id="hashtag-bold-outline"
		viewBox="0 0 24 24"
		fill="inherit"
		stroke="none">
			<path fill-rule="evenodd" d="M11.546 3.035c.553.147.88.708.732 1.254l-1.066 3.933h3.623l1.175-4.336c.148-.546.716-.87 1.268-.724.553.146.88.708.733 1.254l-1.032 3.806h3.985A1.03 1.03 0 0 1 22 9.246a1.03 1.03 0 0 1-1.036 1.024h-4.54l-.937 3.46h4.118a1.03 1.03 0 0 1 1.035 1.024 1.03 1.03 0 0 1-1.035 1.024h-4.673l-1.21 4.463c-.148.546-.716.87-1.268.724a1.023 1.023 0 0 1-.732-1.254l1.066-3.933H9.165L7.99 20.114c-.148.546-.716.87-1.268.724a1.023 1.023 0 0 1-.733-1.254l1.032-3.806H3.036A1.03 1.03 0 0 1 2 14.754a1.03 1.03 0 0 1 1.036-1.024h4.54l.937-3.46H4.395A1.03 1.03 0 0 1 3.36 9.246a1.03 1.03 0 0 1 1.035-1.024h4.673l1.21-4.463c.148-.546.716-.87 1.268-.724Zm-.888 7.235-.938 3.46h3.622l.938-3.46h-3.622Z" clip-rule="evenodd"/>
	</symbol>
	<symbol
		id="sound-on-solid"
		viewBox="0 0 24 24"
		fill="inherit"
		stroke="none">
			<path d="M10.875 19.5a1.12 1.12 0 0 1-.697-.243L5.895 15.75h-3.27A1.125 1.125 0 0 1 1.5 14.625v-5.25A1.125 1.125 0 0 1 2.625 8.25h3.27l4.283-3.507A1.125 1.125 0 0 1 12 5.625v12.75a1.125 1.125 0 0 1-1.125 1.125ZM15 15.75a.75.75 0 0 1-.67-1.087c.445-.885.67-1.781.67-2.663 0-.908-.218-1.778-.668-2.66a.75.75 0 0 1 1.336-.68c.56 1.096.832 2.189.832 3.34 0 1.118-.281 2.241-.83 3.337a.75.75 0 0 1-.67.413Z"/>
			<path d="M17.25 18a.75.75 0 0 1-.65-1.125C17.487 15.332 18 14.04 18 12c0-2.07-.512-3.354-1.398-4.872a.75.75 0 0 1 1.296-.756C18.887 8.068 19.5 9.6 19.5 12c0 2.364-.612 3.904-1.6 5.625a.75.75 0 0 1-.65.375Z"/>
			<path d="M19.5 20.25a.75.75 0 0 1-.628-1.16C20.15 17.131 21 15.176 21 12c0-3.117-.852-5.092-2.132-7.096a.75.75 0 1 1 1.265-.808C21.553 6.323 22.5 8.52 22.5 12c0 3.035-.687 5.326-2.372 7.91a.749.749 0 0 1-.628.34Z"/>
	</symbol>
	<symbol
		id="sound-off-solid"
		viewBox="0 0 24 24"
		fill="inherit"
		stroke="inherit">
			<path fill="none"  stroke="inherit" stroke-linecap="round" stroke-miterlimit="10" stroke-width="1.5" d="M19.5 20.25 3 3.75"/>
			<path fill="inherit" stroke="none" d="M11.406 4.634a1.12 1.12 0 0 0-1.198.085l-.03.024L8.84 5.838a.375.375 0 0 0-.028.555L11.36 8.94a.375.375 0 0 0 .64-.265V5.652a1.149 1.149 0 0 0-.594-1.018ZM11.781 15.717 4.532 8.47a.75.75 0 0 0-.53-.22H2.625A1.125 1.125 0 0 0 1.5 9.375v5.25a1.125 1.125 0 0 0 1.125 1.125h3.27l4.313 3.53a1.121 1.121 0 0 0 1.212.08 1.15 1.15 0 0 0 .58-1.01v-2.104a.75.75 0 0 0-.219-.53ZM16.5 12c0-1.151-.272-2.244-.832-3.34a.75.75 0 1 0-1.336.681c.45.88.668 1.75.668 2.659 0 .125-.005.252-.014.381a.374.374 0 0 0 .108.293l.673.673a.376.376 0 0 0 .636-.202c.064-.378.097-.761.097-1.145ZM19.5 12c0-2.4-.613-3.932-1.602-5.628a.75.75 0 0 0-1.296.756C17.488 8.646 18 9.93 18 12c0 1.117-.154 2.01-.44 2.843a.375.375 0 0 0 .09.387l.584.586a.374.374 0 0 0 .616-.131c.416-1.071.65-2.22.65-3.685Z"/>
			<path fill="inherit" stroke="none" d="M22.5 12c0-3.48-.946-5.677-2.368-7.904a.75.75 0 1 0-1.265.808C20.147 6.908 21 8.883 21 12c0 2.165-.395 3.763-1.051 5.181a.375.375 0 0 0 .074.422l.559.559a.374.374 0 0 0 .605-.101c.92-1.894 1.313-3.764 1.313-6.061Z"/>
	</symbol>
	<symbol
		id="star-outline"
		viewBox="0 0 24 24"
		fill="inherit"
		stroke="inherit">
			<g clip-path="url(#a-star-outline)">
				<g clip-path="url(#b-star-outline)">
					<path fill="inherit" d="M17.456 22.368c-.313 0-.628-.075-.919-.228L12 19.753 7.463 22.14a1.962 1.962 0 0 1-2.077-.15 1.96 1.96 0 0 1-.784-1.93l.867-5.052-3.672-3.579a1.961 1.961 0 0 1-.498-2.023 1.958 1.958 0 0 1 1.59-1.339l5.074-.737 2.268-4.598a1.962 1.962 0 0 1 1.77-1.1c.754 0 1.432.422 1.768 1.1l2.268 4.598 5.074.737a1.958 1.958 0 0 1 1.59 1.34 1.96 1.96 0 0 1-.497 2.021l-2.616 2.552a.72.72 0 1 1-1.006-1.03l2.616-2.552a.52.52 0 0 0 .134-.546.516.516 0 0 0-.428-.36l-5.823-.846-2.604-5.276A.52.52 0 0 0 12 3.073a.52.52 0 0 0-.478.297L8.92 8.646l-5.823.846a.517.517 0 0 0-.428.36.52.52 0 0 0 .134.547l4.214 4.106-.995 5.8a.519.519 0 0 0 .212.52c.08.058.295.179.56.04L12 18.125l5.207 2.74a.52.52 0 0 0 .56-.04.519.519 0 0 0 .212-.521l-.6-3.502a.72.72 0 0 1 1.42-.243l.6 3.502a1.96 1.96 0 0 1-.785 1.928c-.346.251-.75.38-1.158.38Z"/>
					<path fill="inherit" d="M11.825 16.403 8.659 18.07a.375.375 0 0 1-.544-.396l.605-3.527a.375.375 0 0 0-.108-.332l-2.563-2.498a.375.375 0 0 1 .208-.64l3.542-.514a.375.375 0 0 0 .282-.205l1.584-3.21a.375.375 0 0 1 .672 0l1.584 3.21c.055.11.16.187.283.205l3.541.514c.308.045.43.423.208.64l-2.563 2.498a.375.375 0 0 0-.108.332l.605 3.527a.375.375 0 0 1-.544.396l-3.168-1.666a.375.375 0 0 0-.348 0Z"/>
				</g>
			</g>
			<defs>
				<clipPath id="a-star-outline">
					<rect width="24" height="24" fill="transparent"/>
				</clipPath>
				<clipPath id="b-star-outline">
					<rect width="24" height="24" fill="transparent"/>
				</clipPath>
			</defs>
	</symbol>
	<symbol
		id="download-outline"
		viewBox="0 0 24 24"
		fill="inherit"
		stroke="none">
			<path fill="inherit" fill-rule="evenodd" d="M4.788 19.388v-5.05a.95.95 0 1 0-1.9 0v5.25a1.7 1.7 0 0 0 1.7 1.7h15a1.7 1.7 0 0 0 1.7-1.7v-5.25a.95.95 0 1 0-1.9 0v5.05h-14.6Z" clip-rule="evenodd"/>
			<path fill="inherit" fill-rule="evenodd" d="M16.82 9.43c.44.44.44 1.152 0 1.59l-3.937 3.938c-.44.44-1.151.44-1.59 0l-3.938-3.937a1.125 1.125 0 0 1 1.59-1.591l3.143 3.142L15.23 9.43c.439-.44 1.151-.44 1.59 0Z" clip-rule="evenodd"/>
			<path fill="inherit" fill-rule="evenodd" d="M12.088 2.713a.95.95 0 0 1 .95.95v10.5a.95.95 0 1 1-1.9 0v-10.5a.95.95 0 0 1 .95-.95Z" clip-rule="evenodd"/>
	</symbol>
	<symbol
		id="push-solid"
		viewBox="0 0 24 24"
		fill="inherit"
		stroke="none">
			<path fill="inherit" d="M3.951 5.432A1.946 1.946 0 0 0 2.01 7.378L2 19.054C2 20.124 2.878 21 3.951 21h15.61a1.954 1.954 0 0 0 1.951-1.946V12.43c-2.142 2.05-5.533 2.326-7.977.652l-1.262.787a.989.989 0 0 1-1.034 0l-6.898-4.3a.834.834 0 0 1-.297-1.16.839.839 0 0 1 1.176-.242l6.536 4.077.506-.315a6.369 6.369 0 0 1-.995-6.496H3.95Z"/>
			<path fill="inherit" fill-rule="evenodd" d="M22 7.865A4.871 4.871 0 0 0 17.122 3a4.88 4.88 0 0 0-4.346 2.654 4.833 4.833 0 0 0-.532 2.21 4.84 4.84 0 0 0 1.22 3.22 4.866 4.866 0 0 0 3.658 1.646c1.65 0 3.108-.817 3.991-2.067A4.834 4.834 0 0 0 22 7.865Zm-7.095-.105c0-1.441.47-2.991 2.217-2.991s2.217 1.55 2.217 2.991l.397.792a.447.447 0 0 1-.397.64h-4.434a.447.447 0 0 1-.397-.64l.397-.792Zm2.217 3.2c-.557 0-1.069-.36-1.255-.884h2.51a1.33 1.33 0 0 1-1.255.885Z" clip-rule="evenodd"/>
	</symbol>
	<symbol
		id="test-solid"
		viewBox="0 0 24 24"
		fill="inherit"
		stroke="inherit">
			<path fill="inherit" fill-rule="evenodd" clip-rule="evenodd" d="M4.7877 19.3879L4.7877 14.3379C4.7877 13.8132 4.36237 13.3879 3.8377 13.3879C3.31302 13.3879 2.8877 13.8132 2.8877 14.3379L2.8877 19.5879C2.8877 20.0388 3.0668 20.4712 3.38561 20.79C3.70443 21.1088 4.13683 21.2879 4.5877 21.2879H19.5877C20.0386 21.2879 20.471 21.1088 20.7898 20.79C21.1086 20.4712 21.2877 20.0388 21.2877 19.5879V14.3379C21.2877 13.8132 20.8624 13.3879 20.3377 13.3879C19.813 13.3879 19.3877 13.8132 19.3877 14.3379V19.3879H4.7877Z"/>
			<path fill="none" stroke="inherit" fill-rule="evenodd" clip-rule="evenodd" d="M16.8207 9.4299C17.26 9.86924 17.26 10.5815 16.8207 11.0209L12.8832 14.9584C12.4438 15.3977 11.7315 15.3977 11.2922 14.9584L7.3547 11.0209C6.91536 10.5815 6.91536 9.86923 7.3547 9.42989C7.79404 8.99055 8.50635 8.99056 8.94569 9.42989L12.0877 12.5719L15.2297 9.4299C15.669 8.99056 16.3813 8.99056 16.8207 9.4299Z"/>
			<path fill="inherit" fill-rule="evenodd" clip-rule="evenodd" d="M12.0877 2.71289C12.6124 2.71289 13.0377 3.13822 13.0377 3.66289L13.0377 14.1629C13.0377 14.6876 12.6124 15.1129 12.0877 15.1129C11.563 15.1129 11.1377 14.6876 11.1377 14.1629L11.1377 3.66289C11.1377 3.13822 11.563 2.71289 12.0877 2.71289Z"/>
	</symbol>
	<symbol
		id="courses-outline"
		viewBox="0 0 24 24"
		fill="inherit"
		stroke="none">
			<path fill="inherit" fill-rule="evenodd" d="M11.757 2.539a.778.778 0 0 1 .486 0l9.231 3.04A.76.76 0 0 1 22 6.3a.76.76 0 0 1-.526.721L17.23 8.419a6.014 6.014 0 0 1 .402 5.653 6.1 6.1 0 0 1-2.362 2.7 9.199 9.199 0 0 1 4.47 3.552.755.755 0 0 1-.224 1.053.775.775 0 0 1-1.064-.222 7.668 7.668 0 0 0-2.783-2.535 7.776 7.776 0 0 0-7.338 0 7.668 7.668 0 0 0-2.783 2.535.775.775 0 0 1-1.064.222.755.755 0 0 1-.225-1.052 9.2 9.2 0 0 1 4.47-3.553 6.1 6.1 0 0 1-2.362-2.7 6.013 6.013 0 0 1 .403-5.653L3.538 7.354V13.9c0 .42-.344.76-.769.76A.765.765 0 0 1 2 13.9V6.3a.76.76 0 0 1 .526-.721l9.23-3.04ZM5.202 6.3l3.003.989c.045.01.09.025.133.044L12 8.539l3.662-1.206a.774.774 0 0 1 .133-.044l3.003-.989L12 4.061 5.202 6.3Zm10.514 2.617-3.473 1.144a.778.778 0 0 1-.486 0L8.284 8.917a4.51 4.51 0 0 0-.508 4.542c.36.81.952 1.498 1.702 1.982.75.483 1.626.74 2.522.74.896 0 1.772-.257 2.522-.74a4.575 4.575 0 0 0 1.702-1.982 4.51 4.51 0 0 0-.508-4.542Z" clip-rule="evenodd"/>
	</symbol>
	<symbol
		id="new-notify"
		viewBox="0 0 24 24"
		fill="inherit"
		stroke="none">
			<path fill="inherit" d="M22.46 18H1.54c-.29 0-.54-.24-.54-.51V6.5c0-.27.25-.51.54-.51h20.92c.29 0 .54.24.54.51V17.5c0 .27-.25.51-.54.51ZM2.08 16.97h19.84V7.03H2.08v9.94Z"/>
			<path fill="inherit" d="m7.03 14.66-2-3.2v2.94c0 .67-1.08.67-1.08 0V9.6c-.01-.53.73-.7 1-.26l2 3.2V9.6c0-.67 1.08-.67 1.08 0v4.8c0 .53-.73.69-1 .26ZM12.9 14.91h-2.88c-.3 0-.54-.24-.54-.51V9.6c0-.27.25-.51.54-.51h2.88c.29 0 .54.24.54.51s-.25.51-.54.51h-2.34v1.38h1.08c.29 0 .54.24.54.51s-.25.51-.54.51h-1.08v1.38h2.34c.29 0 .54.24.54.51s-.25.51-.54.51ZM14.89 14.4V9.6c0-.27.25-.51.54-.51.28 0 .54.24.54.51v3.37L17 11.68a.56.56 0 0 1 .86 0l.98 1.21V9.6c0-.27.26-.51.54-.51.29 0 .54.24.54.51v4.8c0 .5-.67.68-.97.32l-1.52-1.88-1.52 1.88c-.3.37-1.03.2-1.03-.32Z"/>
	</symbol>
	<symbol
		id="bullhorn-outline"
		viewBox="0 0 24 24"
		fill="inherit"
		stroke="none">
			<path fill="inherit" fill-rule="evenodd" clip-rule="evenodd" d="M9.03767 2.79435C9.3202 2.72955 9.61321 2.81775 9.81295 3.01767L20.9891 14.2039C21.4119 14.627 21.2359 15.3853 20.6714 15.5806L15.9915 17.1869C16.5275 21.0895 10.4134 23.3328 8.39122 19.7947L6.37677 21.7851C6.07647 22.0857 5.50112 22.0857 5.20082 21.7851L2.24057 18.8222C1.92019 18.4957 1.91756 17.9722 2.24242 17.647L4.21674 15.6747L8.43751 3.33586C8.52977 3.06847 8.76222 2.8582 9.03767 2.79435ZM5.7888 20.0196L4.00634 18.2355L4.94026 17.3008L6.72272 19.0848L5.7888 20.0196ZM10.0199 19.2317L14.3092 17.7618C14.0391 19.6185 11.3649 20.7698 10.0199 19.2317ZM9.58602 5.13306L8.76788 7.52271L11.2367 9.99372C11.5571 10.3202 11.5597 10.8437 11.2348 11.1689C10.9362 11.4678 10.3582 11.4684 10.0589 11.1689L8.1639 9.27218L7.68552 10.6685L8.49155 11.4753C8.59798 11.5838 8.66934 11.714 8.70528 11.8514C8.77754 12.1277 8.70665 12.4333 8.4897 12.6504C8.02598 13.1146 7.45658 12.7934 7.08555 12.422L5.89355 15.9047L8.11749 18.1307L18.8833 14.4387L9.58602 5.13306Z"/>
	</symbol>
	<symbol
		id="brain-outline"
		viewBox="0 0 24 24"
		fill="inherit"
		stroke="none">
			<path fill="inherit" fill-rule="evenodd" d="M12 4.46a4.4 4.4 0 0 0-6.77-.677 4.38 4.38 0 0 0-1.288 3.102v.853a5.123 5.123 0 0 0-2.233 2.033 5.105 5.105 0 0 0 1.119 6.51c.341.286.716.525 1.114.712v.122c0 .868.258 1.715.74 2.436A4.405 4.405 0 0 0 12 19.54a4.39 4.39 0 0 0 2.806 1.877 4.404 4.404 0 0 0 4.512-1.865c.483-.72.741-1.568.741-2.436v-.122a5.113 5.113 0 0 0 2.868-3.763 5.104 5.104 0 0 0-.635-3.46 5.123 5.123 0 0 0-2.233-2.032v-.853a4.38 4.38 0 0 0-1.287-3.1A4.4 4.4 0 0 0 12 4.46Zm-3.663-.498c-.777 0-1.522.307-2.072.856a2.92 2.92 0 0 0-.858 2.067v1.342a.73.73 0 0 1-.49.69 3.66 3.66 0 0 0-1.946 1.595 3.646 3.646 0 0 0 .8 4.65 3.664 3.664 0 0 0 2.367.857h.734a.732.732 0 1 1 0 1.462h-.731c-.241 0-.48-.016-.717-.049a2.92 2.92 0 0 0 1.792 2.384 2.937 2.937 0 0 0 3.193-.634 2.921 2.921 0 0 0-2.072-4.99.732.732 0 1 1 0-1.461 4.403 4.403 0 0 1 2.93 1.116V6.885a2.92 2.92 0 0 0-.858-2.067 2.934 2.934 0 0 0-2.072-.856Zm10.73 11.857a3.917 3.917 0 0 0 1.162-.657 3.651 3.651 0 0 0 .8-4.65 3.66 3.66 0 0 0-1.946-1.595.73.73 0 0 1-.49-.69V6.885a2.92 2.92 0 0 0-.858-2.067 2.934 2.934 0 0 0-4.144 0 2.92 2.92 0 0 0-.858 2.067v6.962a4.393 4.393 0 0 1 2.93-1.116.732.732 0 1 1 0 1.461 2.935 2.935 0 0 0-2.707 1.805 2.921 2.921 0 0 0 2.136 3.985 2.937 2.937 0 0 0 3.007-1.243c.263-.392.426-.84.477-1.307a5.129 5.129 0 0 1-.717.049h-.731a.732.732 0 1 1 0-1.462c.662 0 1.3.02 1.94-.2Z" clip-rule="evenodd"/>
			<path fill="inherit" d="M16.395 7.98a.732.732 0 0 0-1.465 0v.732c0 .872.348 1.708.966 2.325a3.3 3.3 0 0 0 2.33.963.732.732 0 1 0 0-1.461c-.485 0-.95-.193-1.294-.536a1.825 1.825 0 0 1-.537-1.291V7.98ZM9.07 7.98a.732.732 0 0 0-1.465 0v.732a1.834 1.834 0 0 1-1.831 1.827.732.732 0 1 0 0 1.461 3.3 3.3 0 0 0 2.33-.963 3.284 3.284 0 0 0 .966-2.325V7.98Z"/>
	</symbol>
	<symbol
		id="followers-outline-thin"
		viewBox="0 0 24 24"
		fill="inherit"
		stroke="none">
			<path fill="inherit" fill-rule="evenodd" d="M5.41 6.616c-.795 1.523-.442 3.455.837 4.593.07.063.143.122.218.179C4.49 11.815 3 13.598 3 15.728v2.009a.464.464 0 0 0 .056.228c.04.065.098.107.166.145a11.492 11.492 0 0 0 10.955.001l.01-.007a.544.544 0 0 0 .147-.146.477.477 0 0 0 .065-.215v-2.015c0-1.328-.589-2.583-1.59-3.421A2.746 2.746 0 0 1 15.3 10.7h2.113c1.517 0 2.749 1.25 2.749 2.782v1.343a8.418 8.418 0 0 1-4.824.842c-.559-.052-.637.763-.1.848a9.251 9.251 0 0 0 5.539-1.052l.003-.002c.084-.049.141-.1.176-.168a.514.514 0 0 0 .044-.2v-1.611a3.633 3.633 0 0 0-2.687-3.52 3.125 3.125 0 0 0 1.103-2.362c0-1.684-1.403-3.101-3.06-3.101s-3.059 1.417-3.059 3.1c0 .937.434 1.79 1.103 2.363a3.606 3.606 0 0 0-2.496 2.348.43.43 0 0 0 .156.488c.94.67 1.501 1.766 1.501 2.929v1.745a10.662 10.662 0 0 1-9.723 0v-1.745c0-1.974 1.587-3.584 3.542-3.584h2.64a3.5 3.5 0 0 1 .97.137c.253.073.441-.102.5-.296a.449.449 0 0 0-.014-.308.389.389 0 0 0-.258-.217 4.37 4.37 0 0 0-.284-.072 3.794 3.794 0 0 0 1.485-3.013c0-2.034-1.708-3.766-3.7-3.766a3.77 3.77 0 0 0-3.31 2.007Zm1.389 3.95a2.968 2.968 0 0 1-.649-3.55 2.926 2.926 0 0 1 2.569-1.554c1.543 0 2.862 1.347 2.862 2.913 0 .943-.454 1.832-1.216 2.38a2.826 2.826 0 0 1-1.66.528c-.71 0-1.387-.255-1.906-.717Zm9.558-5.212c-1.206 0-2.222 1.032-2.222 2.247 0 1.214 1.016 2.246 2.222 2.246 1.205 0 2.22-1.032 2.22-2.246 0-1.215-1.015-2.247-2.22-2.247Z" clip-rule="evenodd"/>
	</symbol>
	<symbol
		id="yandex-color"
		viewBox="0 0 24 24"
		fill="none"
		stroke="none">
		<g clip-path="url(#yandex-color-a)">
			<path fill="#FC3F1D" d="M-.02 12c0-6.628 5.371-12 12-12 6.626 0 12 5.372 12 12s-5.374 12-12 12c-6.629 0-12-5.372-12-12Z"/>
			<path fill="#fff" d="M13.516 6.8h-1.109c-2.033 0-3.102 1.029-3.102 2.547 0 1.716.74 2.52 2.257 3.55l1.254.845-3.603 5.385H6.52l3.234-4.817c-1.86-1.333-2.904-2.628-2.904-4.818 0-2.746 1.914-4.62 5.544-4.62h3.604v14.242h-2.482V6.799Z"/>
		</g>
		<defs>
			<clipPath id="yandex-color-a">
			<rect width="24" height="24" fill="#fff"/>
			</clipPath>
		</defs>
	</symbol>
	<symbol
		id="vk-color"
		viewBox="0 0 24 24"
		fill="none"
		stroke="none">
			<path fill="#07F" d="M0 11.52c0-5.43 0-8.146 1.687-9.833C3.374 0 6.09 0 11.52 0h.96c5.43 0 8.146 0 9.833 1.687C24 3.374 24 6.09 24 11.52v.96c0 5.43 0 8.146-1.687 9.833C20.626 24 17.91 24 12.48 24h-.96c-5.43 0-8.146 0-9.833-1.687C0 20.626 0 17.91 0 12.48v-.96Z"/>
  			<path fill="#fff" d="M12.77 17.29c-5.47 0-8.59-3.75-8.72-9.99h2.74c.09 4.58 2.11 6.52 3.71 6.92V7.3h2.58v3.95c1.58-.17 3.24-1.97 3.8-3.95h2.58c-.43 2.44-2.23 4.24-3.51 4.98 1.28.6 3.33 2.17 4.11 5.01h-2.84c-.61-1.9-2.13-3.37-4.14-3.57v3.57h-.31Z"/>
	</symbol>
</svg>
